<svg xmlns="http://www.w3.org/2000/svg" width="183.82" height="183.82" viewBox="0 0 183.82 183.82"><title>Untitled-1</title><circle cx="91.91" cy="91.91" r="91.91" fill="#08599B"/><path d="M424.88,474.09v31.32a12.83,12.83,0,0,1-.66,3.6,8.31,8.31,0,0,1-2.58,3.84,8.3,8.3,0,0,1,2.58,3.9,13.26,13.26,0,0,1,.66,3.54v32.64h6.6v6.84H420.2a2.82,2.82,0,0,1-1.86-.78,3.61,3.61,0,0,1-.9-2.82V522.45a8.3,8.3,0,0,0-1.2-4.38,4.42,4.42,0,0,0-3.48-2.22v-6.24a3.26,3.26,0,0,0,2.1-.72,6.65,6.65,0,0,0,1.5-1.68,6.45,6.45,0,0,0,.84-2.1,9.46,9.46,0,0,0,.24-1.86v-32.4q0-2.28,1.08-2.94a3.65,3.65,0,0,1,1.68-.66h11.28v6.84Z" transform="translate(-345.99 -420.78)" fill="#fff"/><path d="M443.47,474.09v-6.84h11.28a3.65,3.65,0,0,1,1.68.66q1.08.66,1.08,2.94v32.4a9.34,9.34,0,0,0,.24,1.86,7.32,7.32,0,0,0,.78,2.1,6.15,6.15,0,0,0,1.38,1.68,3.2,3.2,0,0,0,2.16.72v6.24a4.26,4.26,0,0,0-3.42,2.22,8.61,8.61,0,0,0-1.14,4.38v33.72a3.61,3.61,0,0,1-.9,2.82,2.83,2.83,0,0,1-1.86.78H443.47v-6.84h6.6V520.29a14.35,14.35,0,0,1,.6-3.54,7.86,7.86,0,0,1,2.52-3.9,7.86,7.86,0,0,1-2.52-3.84,13.89,13.89,0,0,1-.6-3.6V474.09Z" transform="translate(-345.99 -420.78)" fill="#fff"/></svg>