<?xml version="1.0" standalone="no"?>
<!DOCTYPE svg PUBLIC "-//W3C//DTD SVG 20010904//EN"
 "http://www.w3.org/TR/2001/REC-SVG-20010904/DTD/svg10.dtd">
<svg version="1.0" xmlns="http://www.w3.org/2000/svg"
 width="1000.000000pt" height="1000.000000pt" viewBox="0 0 1000.000000 1000.000000"
 preserveAspectRatio="xMidYMid meet">
<metadata>
Created by potrace 1.11, written by Peter Selinger 2001-2013
</metadata>
<g transform="translate(0.000000,1000.000000) scale(0.100000,-0.100000)"
fill="#000000" stroke="none">
<path d="M4665 9989 c-955 -64 -1902 -416 -2670 -994 -1022 -769 -1716 -1911
-1924 -3165 -55 -328 -65 -461 -65 -830 0 -367 11 -511 65 -830 297 -1773
1534 -3258 3225 -3869 844 -304 1738 -379 2614 -217 1671 309 3080 1457 3720
3031 690 1696 399 3628 -761 5050 -1017 1248 -2593 1931 -4204 1824z m-15
-2704 l0 -185 -180 0 -180 0 0 -877 c0 -960 0 -953 -59 -1079 -16 -34 -48 -83
-71 -108 l-43 -46 43 -46 c23 -25 55 -74 71 -108 59 -127 59 -116 59 -1113 l0
-913 180 0 180 0 0 -185 0 -185 -323 0 c-364 0 -372 1 -414 76 l-23 39 0 965
c0 571 -4 989 -10 1024 -22 135 -101 244 -197 272 l-53 15 0 168 0 168 38 7
c78 12 163 101 199 211 16 45 18 141 23 1020 6 1094 -1 1007 83 1046 38 17 70
19 360 19 l317 0 0 -185z m1348 157 c71 -51 66 22 72 -1062 l5 -975 24 -60
c33 -81 113 -162 170 -171 l41 -7 0 -168 0 -168 -37 -10 c-82 -22 -136 -79
-180 -191 -17 -42 -18 -117 -23 -1060 -5 -992 -5 -1016 -25 -1049 -11 -19 -33
-43 -48 -55 -27 -20 -41 -21 -363 -24 l-334 -3 0 186 0 185 180 0 179 0 3 938
3 937 23 75 c27 87 58 143 107 196 l35 36 -44 49 c-48 54 -75 106 -102 195
-17 54 -18 130 -21 962 l-4 902 -179 0 -180 0 0 185 0 186 333 -3 c329 -3 332
-3 365 -26z"/>
</g>
</svg>
