<?xml version="1.0"?>
<svg xmlns="http://www.w3.org/2000/svg" data-name="Layer 1" viewBox="0 0 211.23 61.07" width="202" height="58">
<path fill="#e31b22" d="M107.41 42.6a12.38 12.38 0 0 0-7.09 2 7.06 7.06 0 0 0-2.17 3.27c-.72 2.69-.7 4.55.36 6.46a6.9 6.9 0 0 0 4.26 3.67 19.14 19.14 0 0 0 7.13 1.62c1.92 0 3.88-.19 5.78-.36l2.2-.2c1.22-.1 2.51-.14 4-.14 2.43 0 5 .74 7.45.87s4.88.26 7.25.26c.82 0 3.21.18 3.67.18.8 0 1.56 0 2.3.05s7.34.05 8 .05a32 32 0 0 0 6.45-.37 8.55 8.55 0 0 0 4.7-3 11.92 11.92 0 0 0 1.77-5.86c.07-1.88-.16-4.82-1.43-6.32a7.58 7.58 0 0 0-5-3.11c-4.55-.83-8.17-.24-11.18-.24-.43 0-6.17.15-6.66.16-.71 0-6.09.28-7.88.46-.72.08-.57.2-1.43.32-.38.05-1.92.59-2.29.64-1 .14-1.71.28-2.34.36a46.47 46.47 0 0 1-6 .2c-1.31 0-2.66-.05-4.12-.15a19.15 19.15 0 0 1-2-.3c-.95-.17-3.39-.33-3.63-.34-.5 0-1.41-.16-2.12-.16m-5 16.11c-2.39-.91-3.3-1.4-4.65-3.76-1.18-2.06-1.17-4.39-.41-7.27a7.8 7.8 0 0 1 2.52-3.7 11.78 11.78 0 0 1 7.15-2.21c.72 0 1.54-.09 2.6 0 .79.06 2.73.33 3.71.51a19 19 0 0 0 1.91.29c1.44.1 2.77.15 4.07.15 2 0 4.19 0 6.11-.14 1.44-.14 4.78-1.32 5.65-1.42 1.83-.2 5-.5 6.81-.56 2-.06 6.11-.06 8.44-.06 3.09 0 6.26-.7 10.94.35 2.81.63 4.31 1.51 5.4 3.31a10.4 10.4 0 0 1 1.63 6.23 10.23 10.23 0 0 1-2.43 7.46 9.43 9.43 0 0 1-4.64 2.81c-1.85.5-5.41.24-6.59.24-.69 0-7.41.14-8.12.11s-1.22 0-2 0c-.44 0-4.71-.25-5.55-.25-2.39 0-3.26-.1-5.67-.23s-5-.87-7.4-.87c-1.43 0-2.25-.16-3.44-.06-.71.06-1.88.32-2.64.4-1.92.18-4.19.33-5.85.37a22 22 0 0 1-7.49-1.69"/>
<path d="M103.31 55.13h-.12a3.31 3.31 0 0 1-2-1.57 3.86 3.86 0 0 1-.54-2 6.79 6.79 0 0 1 .17-1.44h-.09a1.56 1.56 0 0 1 .09-.76 5.6 5.6 0 0 1 1.4-2.2 2.51 2.51 0 0 1 1.42-.68h.11a1.8 1.8 0 0 1 1.29.73 4.12 4.12 0 0 1 .44.69.2.2 0 0 1-.12.17 2.33 2.33 0 0 0-.26.16.91.91 0 0 1-.38.19h-.05a.56.56 0 0 1-.16-.15 1.44 1.44 0 0 0-.61-.46.82.82 0 0 0-.26 0 1.81 1.81 0 0 0-1.32 1.15 6.06 6.06 0 0 0-.56 2.35 4.44 4.44 0 0 0 .64 2.3 1.17 1.17 0 0 0 .88.46 1.58 1.58 0 0 0 .32 0 2.66 2.66 0 0 0 .38-.09 2.5 2.5 0 0 0 .8-.52 6.12 6.12 0 0 0 .43-.56.5.5 0 0 1 .29-.28h.06a1.61 1.61 0 0 1 .33.33l.08.1h.09a.21.21 0 0 1 .14.05.71.71 0 0 1-.22.64l-.06.09a3.59 3.59 0 0 1-2.58 1.49m3.66 0a.17.17 0 0 1-.17-.12v-8.83a.49.49 0 0 1 .33-.1 1.64 1.64 0 0 1 .46.08s.08.12 0 4.18h2.02v-3.74a.18.18 0 0 1 .13-.16 1.42 1.42 0 0 1 .34 0 .64.64 0 0 1 .45.09.13.13 0 0 1 0 .1v.3c0 .54.07 1.67.07 2.79 0 .75 0 1.49-.06 2v2.8a1 1 0 0 1-.34.13.84.84 0 0 0-.28.1h-.09a.21.21 0 0 1-.2-.19v-3.33h-2.08v3.44a.48.48 0 0 1-.39.29h-.09a.58.58 0 0 1-.2.05m5.41-.2a.41.41 0 0 1-.38-.11 11.47 11.47 0 0 1 0-2.64v-5.57c0-.05.19-.14.33-.14h.07l.68-.06h.23c.16 0 .65-.09.86-.13h.13a2.63 2.63 0 0 1 .58-.09h.19a.55.55 0 0 1 .12.51.52.52 0 0 1-.2.5c-.13 0-1.71.36-1.81.42a1.1 1.1 0 0 0 0 .46v1.6a8.12 8.12 0 0 1 1.29-.26.2.2 0 0 1 .17.07 1.24 1.24 0 0 1 0 .71 2.8 2.8 0 0 1-.69.19 2.39 2.39 0 0 0-.68.19 28.79 28.79 0 0 0-.16 3.15l.9-.08h.56a.23.23 0 0 1 .25.1 2 2 0 0 1 0 1 .75.75 0 0 1-.62.18h-.59c-.63 0-1 .07-1.23.07m12.97.02h-.4a.32.32 0 0 1-.25-.16 1 1 0 0 1-.08-.59.24.24 0 0 1 .1-.17c0-.55-.06-2.81-.07-3v-.12c-.07-4.14 0-4.27.07-4.34a.27.27 0 0 1 .23-.14h1.94a10.4 10.4 0 0 1 1 0 .32.32 0 0 1 .23.14.22.22 0 0 1 0 .18v.17a.71.71 0 0 1-.26.63.49.49 0 0 1-.18 0 1.27 1.27 0 0 1-.3 0h-1.77a26 26 0 0 0 0 2.64h1.32c1 0 1 0 1 .1a1.3 1.3 0 0 1 0 .86.26.26 0 0 1-.27.16h-2.04c0 .42.07 1.86.11 2.61h2.6a.24.24 0 0 1 .19.12.88.88 0 0 1 0 .67c-.08.23-.51.32-1.47.32h-1.44a.76.76 0 0 1-.26 0m5.1-7.45v3.34a2.67 2.67 0 0 0 .8-.41 1.81 1.81 0 0 0 .7-.75 1.84 1.84 0 0 0 .07-.9 1.78 1.78 0 0 0-.78-1.15 1.83 1.83 0 0 0-.74-.16zm2.17 7.28h-.67a.27.27 0 0 1-.18-.16v-.05c-.48-1-.71-1.5-.83-1.7a7.53 7.53 0 0 0-.51-.74v.64a12.06 12.06 0 0 0 0 1.59c.07.36 0 .4 0 .41h-.98a.15.15 0 0 1-.15-.15c0-.22.1-2.39.1-2.48v-4a8 8 0 0 0-.13-1.4.3.3 0 0 1 0-.19l.08-.08a.87.87 0 0 1 .41-.07 3.47 3.47 0 0 1 2.63.94 2.82 2.82 0 0 1 .59 1.91 3.17 3.17 0 0 1-.68 1.66 2.61 2.61 0 0 1-.82.59l-.14.08A11.8 11.8 0 0 1 132 53c.21.38.4.78.55 1.1s.22.46.26.52a.31.31 0 0 1 0 .31.21.21 0 0 1-.2.11h-.07m-15.17.16h-.15a1.77 1.77 0 0 1-1.34-2.37v-.05h.12a1.25 1.25 0 0 1 .3 0h.48c.12 0 .13.11.16.36a1.74 1.74 0 0 0 .26.89.52.52 0 0 0 .36.13.78.78 0 0 0 .68-.46 1.39 1.39 0 0 0 .12-.8 2.56 2.56 0 0 0-.24-.89l-.12-.2a6.59 6.59 0 0 0-1.17-1.52l-.36-.4a2.6 2.6 0 0 1-.67-1.23 1.9 1.9 0 0 1 1.13-2.17 2.25 2.25 0 0 1 .86-.16 2 2 0 0 1 .82.16 1.44 1.44 0 0 1 .81 1.21 2.75 2.75 0 0 1-.16 1.27.39.39 0 0 1-.36.15.86.86 0 0 0-.26 0h-.06a.24.24 0 0 1-.19-.1.22.22 0 0 1 0-.19 2 2 0 0 0 .08-1 .8.8 0 0 0-.73-.63.87.87 0 0 0-.73.46 1.54 1.54 0 0 0 .11 1.29 3.1 3.1 0 0 0 .56.71l.14.15a4.67 4.67 0 0 1 1.43 2.31v.05a3.05 3.05 0 0 1 0 1.31 2.51 2.51 0 0 1-.7 1.3 2 2 0 0 1-1.16.34m4.42.09a.82.82 0 0 1-.43-.08V55c0-.5-.11-1.85-.08-3.35s.15-3.37.23-4.19a2.6 2.6 0 0 0-.55-.05 4.54 4.54 0 0 0-.53 0 .25.25 0 0 1-.16-.07.86.86 0 0 1 .17-.88h.46l2.81.23a.68.68 0 0 1 .26 0 .67.67 0 0 1 0 .53 1.3 1.3 0 0 0 0 .22.27.27 0 0 1-.29.14h-.09c-.28 0-.52-.06-.76-.09h-.25c0 .51-.24 2.56-.29 4.36a24 24 0 0 0 0 2.55v.35a.32.32 0 0 1-.09.25.44.44 0 0 1-.32.12h-.12zM156.9 45.1h-.08a3.28 3.28 0 0 0-1.05.94 6.6 6.6 0 0 0-.83 2.61l-.08.57a13.51 13.51 0 0 0-.12 4.27A4 4 0 0 0 156 56a.67.67 0 0 0 .42.16 1.41 1.41 0 0 0 .82-.41 4.15 4.15 0 0 0 .85-2.42c.06-.32.12-.69.19-1.07a29.42 29.42 0 0 0 .53-3.49 6.61 6.61 0 0 0-.25-1.31 2.71 2.71 0 0 0-.79-1.4 2.88 2.88 0 0 1-.19-.28 1.17 1.17 0 0 0-.64-.66m-.52 12.48a1.91 1.91 0 0 1-.61-.11 3.28 3.28 0 0 1-1.62-1.69 12.28 12.28 0 0 1-.75-5.7V50a12.11 12.11 0 0 1 .45-2.91A5.26 5.26 0 0 1 156 44l.21-.1a1.57 1.57 0 0 1 .74-.22h.23c1.06.19 1.35.79 2.06 2.25a7.63 7.63 0 0 1 .54 4.65 14.67 14.67 0 0 1-.3 1.61l-.08.37v.33a9.21 9.21 0 0 1-.65 2.6 3.81 3.81 0 0 1-1.79 1.9 1.84 1.84 0 0 1-.54.08m-9.55-11.94a2.75 2.75 0 0 0-.55.05c-1.53.3-2.23 2.1-2.27 3a4.19 4.19 0 0 0 .06.94v.29a16 16 0 0 0 .06 2.85v.23a5.62 5.62 0 0 0 1 2.83 3.12 3.12 0 0 0 2.33.88h.22a2 2 0 0 0 2-1.38 15.78 15.78 0 0 0 .86-4.5c-.07-2.14-.31-2.7-.89-3.57a3.55 3.55 0 0 0-2.81-1.59m.23 12.28a3.74 3.74 0 0 1-1.68-.45 4.08 4.08 0 0 1-2.13-2.85c-.06-.37-.14-.75-.21-1.14-.14-.75-.29-1.52-.39-2.29a5.76 5.76 0 0 1-.09-1v-.31a6.19 6.19 0 0 1 1.07-3.83 4.49 4.49 0 0 1 2.6-1.8 4 4 0 0 1 .65-.06 4.4 4.4 0 0 1 2.26.67 5.81 5.81 0 0 1 2.41 3.82 13 13 0 0 1 0 4.73 7.25 7.25 0 0 1-1.67 3.59c-.3.3-.78.94-2.85.92m-8.17-13.55s2.35-.16 2.35-.14a4.53 4.53 0 0 0 .77 0 .59.59 0 0 0 .2.06c0 .06 0 .14.07.2a10.72 10.72 0 0 1-1.25 2.18s-.48.87-.62 1.09a7.34 7.34 0 0 1-.63 1l-.8 1.39-.71 1.26-.69 1.24-.71 1.34a27.26 27.26 0 0 1-1.25 2.43h1.34c1.28 0 1.41.07 2.71 0 .49.05 1.23-.07 1.76 0h.29a1.57 1.57 0 0 1 .62.13 3.34 3.34 0 0 0-.09.78 3 3 0 0 1-.13.55h-3.96s-1.31-.05-1.32 0a17.4 17.4 0 0 1-2.16 0 7.26 7.26 0 0 1-1.07 0 .36.36 0 0 1-.08-.22c0-.12 0 .13 0 0a11.36 11.36 0 0 1 .57-1.08c.8-1.4 1.28-2.39 2-3.82.63-1.2 1.32-2.35 2-3.49.54-.86 1-1.71 1.63-2.51.14-.29.51-.8.65-1.12-1.33.1-4 0-5.36.09a5.86 5.86 0 0 1-.75-.17 1.56 1.56 0 0 1-.06-.15c.12-.38 0-.66.11-1h1.63z" fill="#e31b22"/>
<g fill="#e31b22">
    <path d="M76.61 21.12c.14.87.45 3.93 1.68 5.15a5.23 5.23 0 0 0 4.15 1.51 3.84 3.84 0 0 0 3.39-2.5.45.45 0 0 1-.3 0c-.22-.17-.12-.48.22-.81s1.64-1.8 1.53-6.59c-.07-3.41-.49-4.35-1.5-5.8a5.78 5.78 0 0 0-5.6-2.48c-2.44.46-3.7 3.25-3.77 4.82.1 0 .29 0 .3.11-.1.48-.11 1.08-.21 1.41a23.93 23.93 0 0 0 .11 5.18z"/>
    <path d="M56.57 25.91l.33 3.17v2.09l2.3 2.42 15.65.73 19.32-.73 11.66-.59 1.24-2.61v-3.9l-.81-8.91.81-8.29v-3l-2.7-4.8-15.51 1.22-12.27-1-19.08-.25-1.76 4.72.88 14.59zm36.3-19.57v-.15a1.24 1.24 0 0 1 .84-.11c3.11 0 6.31.9 7.7 2.59a7.59 7.59 0 0 1 1.67 5.26 8.57 8.57 0 0 1-1.93 4.58 10.52 10.52 0 0 1-3.1 2 30.88 30.88 0 0 1 2.32 3.67c1.12 2 2.1 4.21 2.43 4.67s.19.79-.33.69c-.35-.06-1.78 0-2-.07a.47.47 0 0 1-.3-.27c-.44-.9-1.5-3.31-2.56-5.07a24.78 24.78 0 0 0-2.15-2.89c.1 2.52-.16 4.71.16 7.37a.88.88 0 0 1-.58.27 1.66 1.66 0 0 1 0 .54c-.6.14-1.37 0-2 .06-.13 0-.15-.06-.16-.15 0-1 .28-6.59.31-7.07.07-1.23.07-7.33-.07-11.45a19.9 19.9 0 0 0-.43-4.15c-.07-.21-.04-.31.18-.32zM75.55 10a7.83 7.83 0 0 1 4.52-3 7.58 7.58 0 0 1 5 1 9.74 9.74 0 0 1 4.17 6.38 20.63 20.63 0 0 1 0 7.81 10.62 10.62 0 0 1-2.88 5.7c-.76.72-5.21 2.61-7.86 1.06a6.85 6.85 0 0 1-3.69-4.76c-.33-1.81-.78-3.72-1-5.65a13.55 13.55 0 0 1-.18-2.17A10.08 10.08 0 0 1 75.55 10zm-14-2.88c0-.45 9.7-1.44 10.94-1.47a.35.35 0 0 1 .27.56 1.7 1.7 0 0 1 .3.25 1.77 1.77 0 0 1-.81 2c-.63.09-7.63 1.14-8.1 1.19 0 1-.28 7.1-.22 7.2 1-.16 5.47-.66 5.79 0a6.63 6.63 0 0 1-.23 2.44 1.17 1.17 0 0 1-.8.25c-.32 0-2.77.1-4.63.33s.53 7.32.51 9.07a.4.4 0 0 1-.32.41c-.62.27-1.84.47-2.2.12-.14-.46-.27-6.28-.31-8.4s-.38-12.77-.19-13.94zM1.08 32.93l3.38.87 3.7-.29 3.62.69 11.57-.69h16.9c2.63 0 5.13-.66 7.67 0L52 31.69l-1.1-15.38L51.6 6l-2.2-4.79L42 .35l-7.84.86h-7.39L11.5 0 3.07.81 1.61 2 .9 15.83 0 18.94v7.6zm34.39-27.3a12.77 12.77 0 0 1 2 .11c.54.06 8.13.6 8.95.64a1.21 1.21 0 0 1 .66.11c.43.36 0 1.29 0 1.9 0 .24-.34.18-.79.19-1.19-.1-3.05-.28-4-.39 0 .16-.46 6.84-.64 12.47-.14 4.3-.11 6.51 0 8 0 .49-.38.7-.94.68a3 3 0 0 1-1.33-.19c-.13-1.58-.06-5.28 0-9.26.09-4.67.22-9.71.43-11.83a16 16 0 0 0-4.37-.12.23.23 0 0 1-.27-.17c-.1-.64-.29-1.87.3-2.14zM20.08 16a3.77 3.77 0 0 1 .22-1.89A14.34 14.34 0 0 1 24 8.5a6.67 6.67 0 0 1 3.74-1.72 4.55 4.55 0 0 1 3.6 1.82 10.41 10.41 0 0 1 1.17 1.78.39.39 0 0 1-.24.33c-.6.28-1.43 1-1.73.87A6.46 6.46 0 0 0 28.49 10c-1.77-.6-3.27 1-4.39 2.93a15.17 15.17 0 0 0-1.51 6.13c-.08 1.36.69 5 1.76 6.05a3.22 3.22 0 0 0 3.35 1.12s.91-.22 1-.23a5.55 5.55 0 0 0 2.18-1.37c1.28-1.4 1.58-2.32 1.93-2.11A6.76 6.76 0 0 1 34 23.68a.45.45 0 0 1 .54 0c.23.3-.31 1-.76 1.73-1.32 2-4.78 4-7.12 3.77s-4.39-2.68-5.28-4A9.59 9.59 0 0 1 19.93 20a17.89 17.89 0 0 1 .5-4 .73.73 0 0 1-.35 0zM5.71 21.9c.89-3.62 4.48-15.54 4.57-15.72a1.78 1.78 0 0 1 .81-.24 3.5 3.5 0 0 1 1.55.06 17.34 17.34 0 0 1 .73 2.34c.08.3.86 3.75 1.83 7.51.67 2.59 1.48 5.18 2 7.57a31.65 31.65 0 0 1 .59 5.39c.07.42-.14.6-.34.59a.69.69 0 0 1-.31-.24 7.38 7.38 0 0 1-2 0c-.1 0 0-.67-.23-2.21-.34-2.46-1-6.29-1.14-6.6 0 0-2 .23-3.37.5a14.18 14.18 0 0 0-2.27.59c-.13 1.12-.4 2.3-.6 3.23a25.13 25.13 0 0 1-1.11 3.93.58.58 0 0 1-.35.22 7.23 7.23 0 0 1-1.16-.48.39.39 0 0 1-.31-.2 38.4 38.4 0 0 1 1.11-6.24z"/>
    <path d="M12.52 12.92c-.39-1.86-.92-3.67-1.06-4.26-.82 2.71-1.91 7.28-2.8 10.82.54-.11 4.32-.85 4.84-1-.09-.65-.5-3.17-.98-5.56zM95.5 19a9.09 9.09 0 0 0 2.88-1.35 5.42 5.42 0 0 0 2.19-2.32A5.2 5.2 0 0 0 98.28 9a6 6 0 0 0-2.73-.47.46.46 0 0 0 .1.38c-.03 3.38-.19 6.58-.15 10.09zm24.98-17.91l-7.61.35-1.23 3 .08 4-.08 4.95 1.13 14.86-.33 4.71 2.29 1.22 4.17-.22c1.23 0 2.41.35 3.63.33 5.27-.09 10.53-.25 15.79-.33 2.24 0 4.48-.1 6.72-.12 3.58 0 7.22-.85 10.8-.52l1.68.34a29.51 29.51 0 0 0 3.33.49c4.12.38 8.16 0 12.39 0 2.5 0 5 0 7.51-.07l23-1.08h6.39l-1.06-3.18 1.36-2.77c0-5.08.75-6.71.75-11.79 0-2.24-.6-6.05-.6-8.3V3.45l-.9-1.91-.95-1-20.74.7S163.1.42 162.21.82s-7.29-.53-12-.82c-.29 0-29.73 1.09-29.73 1.09zm10.1 14.37a1 1 0 0 1 .21.21c0 1.53-.81 7.93-1 8.89-.53 3.21-.45 3.7-.76 3.8-.56.18-1.19-.33-2-2.87s-2.6-7.4-3-8.25c-.09.16-1.74 5.84-2 6.62-1.18 3.53-1.18 3.87-2 4.88a.46.46 0 0 1-.68-.43c-.5-5.24-1.16-7.21-1.44-9.83-.19-1.32-1-7.74-1.28-11 0-.17-.29-1.49.28-1.55s1.74-.07 1.79.21a23.26 23.26 0 0 1 .49 3.1c.27 2 .92 7.06.92 7.1a33.2 33.2 0 0 1 .4 3.52c.17-.54 1.71-6.26 2-7.26s1.22-4.76 1.26-5 .08-.57.43-.53.34.2.54 1 3.16 10.7 3.43 11.32c.12-.76.44-13.21.77-13.48a12.21 12.21 0 0 0 1.9-.28.47.47 0 0 1 .53 0 .25.25 0 0 1 0 .24c-.1.22-.66 9-.8 9.6zm6.71-7c0 .84-.06 18-.1 18.88a1.26 1.26 0 0 1-.22.94v.22a7.68 7.68 0 0 1-2 .06c.06-1 0-1.89 0-2.9-.06-.1-.13-.06-.13-.2v-1.72c.08-3.25 0-4.84 0-8.1 0-.49 0-3 .07-5.31.06-1.28-.34-4.74-.07-4.73l2.52-.05s.03 2.11-.08 2.89zm60 7.59c0-1.27.08-2.57 0-3.85s.1-6.28.11-6.43 2.2-.18 2.91-.24c0 0 2.66-.31 3.29-.43a16 16 0 0 1 2.05-.33h.35a2.88 2.88 0 0 1 0 1.4 1.46 1.46 0 0 1-.24.78c-.37 0-5.31.88-5.7 1.08a33.33 33.33 0 0 0-.2 6.32l.06.11a43.37 43.37 0 0 1 4.37-.78h.05a.28.28 0 0 1 .22.07 4.84 4.84 0 0 1 .17 1.6c-.57.25-4.91 1.19-4.91 1.19l.12 1.46a43 43 0 0 0-.32 7.08l.1.48.51.09c1.12-.06 4.12-.36 4.5-.36a.72.72 0 0 1 .44.06 4.87 4.87 0 0 1-.08 2.43 2.75 2.75 0 0 1-1.57.33c-.65 0-4.76.29-5.42.29a1 1 0 0 1-.87-.17c-.23-.37.06-11.07.1-12.23zM186.55 5.43a.62.62 0 0 1 .74-.6c1.5.12 6-.22 7.48.22a.89.89 0 0 1 .09.66c0 1.37-.19 1.5-.43 1.54-1 .12-5.24 0-5.65 0a.18.18 0 0 0-.16.2c0 1.9-.06 7.23-.11 7.8.74 0 3.88-.09 4.64-.12a.78.78 0 0 1 .66.24c.06.25.2 1.69-.19 1.89a42.47 42.47 0 0 1-5.11.29c-.06 2-.1 10.74-.23 11-.14 0-1.33-.12-1.76-.12-.25 0-.31-.31-.31-.67v-7.33c-.02-2.06.21-13.57.34-15zm-6.77 3.77V7.34c0-.35.19-1.69.19-1.69l-.12-.88a6.7 6.7 0 0 1 1.93.12c.3.13.24.55.22 1.21 0 2.23-.47 18.35-.46 18.9a15.35 15.35 0 0 1 .1 3.14c-.16.78-1.34.35-2 .34a7 7 0 0 1-.18-2.34c-.01-2.48.29-15.53.32-16.94zM166.5 5.48a4.56 4.56 0 0 1 2.24-.19c.36 1.57-.35 3.35-.17 5.12l.1 1.88s-.09 10.12-.24 13.86c2.32-.15 6-.22 6.44-.2s.8 0 1.28 0a.31.31 0 0 1 .22.18 19.58 19.58 0 0 1-.38 2.13.24.24 0 0 1-.21.21h-9.62c-.17 0-.25-.14-.25-.37-.08-1.31.67-21.75.59-22.62zm-18.32 22.71c-.5.05-1.08-.06-2.11-.05s-3.31.18-4.18.16c-.23 0-.11-2.12 0-2.91s-.55-18-.53-18.87a1.26 1.26 0 0 1 .19-.95v-.23a7.67 7.67 0 0 1 2-.12c0 1 .1 1.89.08 2.89.06.1.13.05.13.2 0 2.54.24 17.09.26 17.62a21.31 21.31 0 0 1 4.69.1 2.55 2.55 0 0 1-.53 2.16zm2.67-22.75c.1-.53.91-.5 2-.48a19.56 19.56 0 0 1 3.74.5A9.57 9.57 0 0 1 161 8.41c2 2.1 2.45 7 2.46 8.34-.27 5.29-2.37 8.84-5.07 10.12s-6.68 1.95-7.08 1.55a.68.68 0 0 1-.13-.33 5.16 5.16 0 0 1-.07-1.52c0-.66 0-1.1-.08-1.76s-.06-1.61-.08-2.41v-.7c.05-2.47-.43-15.29-.1-16.26z"/>
    <path d="M156.27 25.56a7.29 7.29 0 0 0 3.73-3.18 10.44 10.44 0 0 0 .87-7.45c-.63-2.86-2.39-6.33-5.85-7.24a14.83 14.83 0 0 0-2.17-.4c0 1.76.69 16.19.86 18.74a9.7 9.7 0 0 0 2.56-.47z"/>
    <path d="M66.56 56a9.29 9.29 0 0 1-1.83-.23h-.36a.38.38 0 0 1-.37-.12.51.51 0 0 1 0-.25v-2.42c0-.34.05-.94.1-1.48s.07-.81.06-.88a.25.25 0 0 0 0-.08.26.26 0 0 1 0-.2.18.18 0 0 1 .06-.1c0-1.15.07-2.47.11-3.67v-.52a2.66 2.66 0 0 0 0-.46.39.39 0 0 0 0-.07.33.33 0 0 1 0-.22.25.25 0 0 1 .14-.12h.3l1 .07h.19a17.54 17.54 0 0 0 1.85-.14h.11a.22.22 0 0 1 .25.11.3.3 0 0 1-.2.39H67a6.4 6.4 0 0 1-.89 0h-1.39v.42c0 1.38-.09 2.74-.11 4.1h2.22a.71.71 0 0 1 .23 0 .24.24 0 0 1 .1.25.27.27 0 0 1-.29.22h-.74a2 2 0 0 1-.4 0 2.92 2.92 0 0 1-.43 0h-.7a7.83 7.83 0 0 1 0 1v.36c-.05.68 0 1.4 0 2.1v1.24a4.28 4.28 0 0 1 .84.11l.41.08a5 5 0 0 0 .65 0 11.31 11.31 0 0 0 1.33-.1h.46a1.57 1.57 0 0 1 .35-.05.62.62 0 0 1 .2 0 .24.24 0 0 1 .09.23.21.21 0 0 1-.1.16A9.57 9.57 0 0 1 67 56h-.44m3.35-.07a.15.15 0 0 1-.11 0 .23.23 0 0 1-.05-.17c.07-1.83 0-3.69 0-5.49v-5a.26.26 0 0 1 .25-.12.23.23 0 0 1 .17.06.15.15 0 0 1 .18-.12h.11A5.61 5.61 0 0 1 73 47.54a5.79 5.79 0 0 1 .88 2.94v.68a4.72 4.72 0 0 1-.27 1.67l-.09.17v.15a.71.71 0 0 1-.1.25.7.7 0 0 0-.1.22 5.37 5.37 0 0 1-1.84 1.83 2 2 0 0 0-.31.13 1.29 1.29 0 0 1-.61.17 1.26 1.26 0 0 0-.32.1h-.25m.32-10.49a8.39 8.39 0 0 0 0 1.17c0 1.26.07 7.16.07 8.75h.23A4.3 4.3 0 0 0 72.44 54a8.13 8.13 0 0 0 .89-2.33 6.76 6.76 0 0 0-.13-2.21 5.63 5.63 0 0 0-.65-1.54l-.08-.15c-.17-.36-1.4-2-2.17-2.11l-.09-.11M59.53 56.51a.24.24 0 0 1-.18-.29V45.84a13.9 13.9 0 0 1 0-1.49v-.23a.74.74 0 0 1 .16-.63h.06a.31.31 0 0 1 .23.07 1.77 1.77 0 0 1 0 .54v5.69c0 2-.06 4.19 0 6.3 1 0 2.16-.05 3.33-.11a.26.26 0 0 1 .21.17.31.31 0 0 1 0 .26.17.17 0 0 1-.13.07h-3.67zm21.47.18h-1a.27.27 0 0 1-.2-.11.25.25 0 0 1 0-.23v-.36c0-.66-.09-1.35-.08-2v-.16a1.44 1.44 0 0 0 0-.16v-3.18c0-.68 0-1.37.08-2s.08-1.2.08-1.79a.24.24 0 0 1 .25-.13.37.37 0 0 1 .14 0 .15.15 0 0 1 0 .07v1.23c-.06 1.29-.11 2.62-.12 4V52a6.36 6.36 0 0 0 0 1 24.62 24.62 0 0 0 .09 3.23h.55a3.38 3.38 0 0 0 2.56-1 2.32 2.32 0 0 0 .52-1.92 2.59 2.59 0 0 0-1-1.42 4.23 4.23 0 0 0-2.27-.78h-.08a.21.21 0 0 1-.16-.11.28.28 0 0 1 .08-.28l.56-.19a8.18 8.18 0 0 0 1.45-.45 1.74 1.74 0 0 0 1.19-1.45 1.68 1.68 0 0 0-.55-1.2 3.73 3.73 0 0 0-2.57-1.05h-.16c-.13 0-.44 0-.45-.21a.59.59 0 0 1 .57-.25h.11a3.7 3.7 0 0 1 2.92 1.25 2.18 2.18 0 0 1 .55 1.91c-.07.3-.46 1.29-2.38 1.74a4.76 4.76 0 0 1 .87.25 3.42 3.42 0 0 1 1.91 2.35v.12a1.71 1.71 0 0 1-.06.83 3.41 3.41 0 0 1-2.16 2.15 3.77 3.77 0 0 1-1.27.18m5.26-.84h-.1a.3.3 0 0 1-.13-.32.28.28 0 0 1 0-.09c0-.49 0-1.27.05-2 0-1 .05-1.93 0-2.11a.37.37 0 0 0 0-.11v-.07c-.09-.25-.15-.51-.22-.79l-.1-.39c-.27-1-.91-3.34-1.12-4l-.08-.3a4.13 4.13 0 0 0-.2-.6V45a.73.73 0 0 1 0-.12.27.27 0 0 1 .25-.18.3.3 0 0 1 .24.12c.09.34.3 1.08.53 1.9.31 1.11.66 2.36.81 2.92a.23.23 0 0 1 .14-.16c.26 0 .28.22.28.42.18-.38.76-1.66 1-2.31.11-.25.22-.49.34-.74a11.23 11.23 0 0 0 .61-1.48 1.7 1.7 0 0 0 .09-.26.52.52 0 0 1 .38-.5.24.24 0 0 1 .23.12.46.46 0 0 1-.05.31c-.29 1-2.39 5.7-2.57 6v4.41a.51.51 0 0 1-.07.36.28.28 0 0 1-.21.07" fill-rule="evenodd"/>
</g>
</svg>