<svg xmlns="http://www.w3.org/2000/svg" width="99.22mm" height="81.91mm" viewBox="0 0 281.25 232.19"><defs><clipPath id="a"><path fill="none" d="M0 0h281.25v232.19H0z"/></clipPath></defs><title>asvb_logo_colour</title><g clip-path="url(#a)"><path d="M183.88 75.93l20.82-5.65a104.66 104.66 0 0 1 5.4 24l-21.64.09a83.34 83.34 0 0 0-4.59-18.39" fill="#ed1b5b"/><path d="M183.88 75.93a84.06 84.06 0 0 0-25.72-35.71l13.49-16.72a105.53 105.53 0 0 1 33.05 46.77z" fill="#f7941d"/><path d="M104.93 0a104.89 104.89 0 0 1 66.72 23.5l-13.49 16.71a83.81 83.81 0 0 0-116 10L23.73 38.74A105.13 105.13 0 0 1 104.93 0" fill="#524e6b"/><path d="M23.73 38.74L42.17 50.2a83.92 83.92 0 0 0-13.59 21.36l-20.9-5.71a105.31 105.31 0 0 1 16-27.11" fill="#9bd3de"/><path d="M7.68 65.85l20.9 5.71a83.29 83.29 0 0 0-6.48 23.68l-21.62.09a104.59 104.59 0 0 1 7.2-29.48" fill="#2d9bb0"/><path d="M21.47 105.67a83.5 83.5 0 0 0 10.72 40.71L14 157.81a104.82 104.82 0 0 1-14-52.06c0-3.52.15-7 .48-10.42l21.62-.09a84.81 84.81 0 0 0-.63 10.42" fill="#fbcd0d"/><path d="M14 157.81l18.2-11.44a84.22 84.22 0 0 0 36.75 34.54l-10 19a105.78 105.78 0 0 1-45-42.12" fill="#ed1b5b"/><path d="M59 199.93l10-19a83.52 83.52 0 0 0 36.72 8.29 85 85 0 0 0 8.73-.49l.08 21.54c-2.88.25-5.78.41-8.73.42A104.85 104.85 0 0 1 59 199.93" fill="#f7941d"/><path d="M84.1 140c5.65 0 8.56 3.38 8.56 9.29v1.16h-5.49V149c0-2.64-1.06-3.64-2.9-3.64s-2.9 1-2.9 3.64c0 7.6 11.36 9 11.36 19.59 0 5.91-3 9.29-8.66 9.29s-8.66-3.38-8.66-9.29v-2.27h5.49v2.64c0 2.64 1.16 3.59 3 3.59s3-.95 3-3.59c0-7.6-11.35-9-11.35-19.59 0-5.91 2.91-9.29 8.56-9.29m11.46 9.24c0-5.91 3.12-9.29 8.82-9.29s8.82 3.38 8.82 9.29v19.22c0 5.92-3.12 9.3-8.82 9.3s-8.82-3.38-8.82-9.3zm5.81 19.59c0 2.64 1.16 3.65 3 3.65s3-1 3-3.65V149c0-2.64-1.16-3.64-3-3.64s-3 1-3 3.64zm32.43-5.28v4.91c0 5.91-3 9.29-8.66 9.29s-8.66-3.38-8.66-9.29v-19.22c0-5.91 3-9.29 8.66-9.29s8.66 3.38 8.66 9.29v3.59h-5.49v-4c0-2.64-1.16-3.64-3-3.64s-3 1-3 3.64v20c0 2.64 1.16 3.59 3 3.59s3-.95 3-3.59v-5.28zm3.55-23.18h5.81v36.97h-5.81zm28.83 36.97h-5.86l-1-6.71h-7.13l-1 6.71h-5.34l5.92-37h8.5zm-13.26-11.72h5.6l-2.79-18.7zm15.96-25.25h5.81v31.69h9.56v5.28h-15.37v-36.97z" fill="#524e6b"/><path fill="#ed1b5b" d="M193.83 170.6l4.43-30.15h5.33l-5.7 36.96h-8.66l-5.7-36.96h5.86l4.44 30.15zm29.95 6.82h-5.86l-1-6.71h-7.13l-1 6.71h-5.33l5.91-37h8.5zm-13.26-11.72h5.6l-2.8-18.7zm15.96-25.25h5.8v31.69h9.56v5.28h-15.36v-36.97zm23.45 0V169c0 2.64 1.16 3.59 3 3.59s3-1 3-3.59v-28.55h5.49v28.15c0 5.91-3 9.29-8.66 9.29s-8.66-3.38-8.66-9.29v-28.15zm21.29 15.58h7.97v5.28h-7.97v10.82h10.03v5.29h-15.84v-36.97h15.84v5.28h-10.03v10.3z"/><path d="M102.68 127.88l-1.19 6.2h-3.16l5.89-30.78h5l5.89 30.78h-3.43l-1.19-6.2zm.44-2.95H110l-3.47-17.76zm17.88 1.89c0 2.77 1.1 4.44 3.6 4.44s3.56-1.67 3.56-4.44V103.3h3.21v23.35c0 4.66-2.15 7.78-6.9 7.78s-6.86-3.12-6.86-7.78V103.3H121zm27.08-16.13v.83h-3.25v-1c0-2.77-1.05-4.4-3.52-4.4s-3.51 1.63-3.51 4.35c0 6.9 10.33 7.56 10.33 16.22 0 4.66-2.24 7.69-6.95 7.69s-6.9-3-6.9-7.69v-1.76h3.21v1.93c0 2.77 1.14 4.4 3.6 4.4s3.61-1.62 3.61-4.4c0-6.86-10.29-7.52-10.29-16.18 0-4.75 2.2-7.7 6.82-7.7s6.86 3 6.86 7.7m7.51 23.4v-27.66h-5.67v-3.12h14.77v3.12h-5.67v27.66h-3.43zm18.33-30.78c4.84 0 6.86 2.46 6.86 7v2.51c0 3.38-1.19 5.5-3.83 6.33 2.81.84 3.87 3.12 3.87 6.42v4.79a7.73 7.73 0 0 0 .61 3.69H178a8.06 8.06 0 0 1-.57-3.74v-4.8c0-3.47-1.62-4.57-4.48-4.57h-2.45v13.14h-3.43V103.3zm-.88 14.51c2.73 0 4.35-.88 4.35-4.22v-2.94c0-2.77-1-4.22-3.56-4.22h-3.34v11.39zm14.81 10.07l-1.19 6.2h-3.16l5.89-30.78h5l5.89 30.78h-3.43l-1.19-6.2zm.44-2.95h6.86l-3.47-17.76zm14.64 9.15V103.3h3.43v27.65h8.79v3.13h-12.22zm14.81-30.78h3.43v30.78h-3.43zm10.41 24.58l-1.19 6.2h-3.16l5.89-30.78h5l5.89 30.78h-3.43l-1.19-6.2zm.44-2.95h6.86L232 107.17zm17.67 9.15h-3.08V103.3h4.35l7.13 22.25V103.3h3.03v30.78h-3.56l-7.87-24.89v24.89zm-108.5 49.85c7.51 0 10.48 3.59 10.48 10.69v2.27c0 5.1-1.45 8.27-5.65 9.58 4.69 1.31 6.48 5 6.48 10.34v4.07c0 7.24-3.51 11.31-11 11.31h-11.1v-48.26zm-1.31 20.48c4.28 0 6.48-1.38 6.48-6.41v-2.83c0-4.28-1.45-6.34-5.31-6.34h-5.31v15.58zM138 227.3c3.93 0 5.72-2.07 5.72-6.55v-4.28c0-5.38-2.14-7.17-6.76-7.17h-4.68v18zm21.42-4.83l-1.86 9.72h-5l9.24-48.26h7.79l9.24 48.26h-5.38l-1.86-9.72zm.69-4.62h10.76L165.42 190zm27.71 14.34H183v-48.26h6.82l11.17 34.89v-34.89h4.76v48.26h-5.58l-12.35-39.02v39.02zm31.65-20.95l-2.83 4.75v16.2h-5.38v-48.26h5.38v23.31l12.83-23.31h5.44l-12.2 22 12.61 26.26h-5.51l-10.34-20.95z" fill="#8f8e8e"/></g></svg>