<svg width="202" height="50" data-name="Layer 1" xmlns="http://www.w3.org/2000/svg" viewBox="0 0 202.02 49.63"><title>Evergreen Energy</title><path d="M144.21 33.48a4.69 4.69 0 0 1 4.8 4.57v.26a3.64 3.64 0 0 1 0 .73.49.49 0 0 1-.48.45h-7.33a3.07 3.07 0 0 0 3.14 2.86 4.1 4.1 0 0 0 2.6-.89c.23-.16.43-.23.62 0l.62 1c.18.23.27.43 0 .71a6 6 0 0 1-3.89 1.29 5.24 5.24 0 0 1-5.29-5.21v-.29a5.22 5.22 0 0 1 5-5.47h.26zm2.55 4.34a2.46 2.46 0 0 0-2.53-2.39h-.06a2.67 2.67 0 0 0-2.83 2.39zm4-3.59a.52.52 0 0 1 .5-.5h.55a.4.4 0 0 1 .43.32l.32.91a4.73 4.73 0 0 1 3.44-1.47c3.21 0 4.1 2.23 4.1 4.92v5.28a.52.52 0 0 1-.5.5h-1.27a.52.52 0 0 1-.5-.5v-5.33c0-1.71-.71-2.71-2.06-2.71a3.2 3.2 0 0 0-2.77 1.52v6.56c0 .34-.18.5-.62.5h-1.16a.52.52 0 0 1-.5-.5v-9.52zm16.24-.75a4.69 4.69 0 0 1 4.8 4.57v.26a3.64 3.64 0 0 1 0 .73.49.49 0 0 1-.48.45H164a3.07 3.07 0 0 0 3.14 2.86 4.1 4.1 0 0 0 2.58-.89c.23-.16.43-.23.62 0l.62 1c.18.23.27.43 0 .71a6 6 0 0 1-3.96 1.29 5.24 5.24 0 0 1-5.26-5.21v-.29a5.22 5.22 0 0 1 5-5.47zm2.54 4.34a2.46 2.46 0 0 0-2.54-2.4h-.06a2.67 2.67 0 0 0-2.82 2.4zm3.83-3.59a.52.52 0 0 1 .5-.5h.55a.48.48 0 0 1 .45.36l.3 1a4 4 0 0 1 3.18-1.55c1 0 2.25.27 1.91 1l-.55 1.15a.45.45 0 0 1-.57.29h-.06a2.6 2.6 0 0 0-1-.21 3 3 0 0 0-2.46 1.41v6.66c0 .45-.3.5-.73.5h-1.05a.52.52 0 0 1-.5-.5zm17 10.08a4.54 4.54 0 0 1-4.87 4.92 5.69 5.69 0 0 1-3.64-1.32.49.49 0 0 1-.11-.59l.55-1a.44.44 0 0 1 .58-.24l.13.08a4 4 0 0 0 2.46 1c1.39 0 2.62-.68 2.62-2.82v-.61a5.6 5.6 0 0 1-2.68.75 5.26 5.26 0 0 1-5.07-5.51c0-3 2.06-5.48 4.92-5.48a4.87 4.87 0 0 1 3.28 1.25l.27-.66c.07-.21.14-.36.39-.36h.62a.52.52 0 0 1 .5.5v10.1zm-4.71-2a4.28 4.28 0 0 0 2.46-.82v-4.37a3 3 0 0 0-5.51 1.84 3.28 3.28 0 0 0 3.04 3.36zm6-7.93a.47.47 0 0 1 .45-.68h1.5a.52.52 0 0 1 .45.3l2.46 7.22 3-7.22a.49.49 0 0 1 .55-.3h1.41a.45.45 0 0 1 .45.68l-6.42 14.92a.52.52 0 0 1-.43.32h-1.45a.48.48 0 0 1-.45-.71l2.14-5.09z" fill="#3aaa35"></path><path d="M69.63 18.47H59.15a5.56 5.56 0 0 1 5.49-4.74 5 5 0 0 1 5 4.74m-5-7.5c-5.62 0-8.57 4.64-8.57 9.21 0 5.44 3.52 9.24 8.57 9.24a10.76 10.76 0 0 0 6.45-2c.68-.52.55-.77.21-1.31l-.48-.69a1 1 0 0 0-.59-.52c-.28-.06-.57.14-.89.36a8 8 0 0 1-4.64 1.41 6 6 0 0 1-5.57-5.74h12.54a.93.93 0 0 0 .91-.82 9.85 9.85 0 0 0 .07-1.07 7.75 7.75 0 0 0-7.47-8h-.53m25.2.7a.82.82 0 0 0-.77-.34h-1.21a.82.82 0 0 0-.77.56l-5.67 12.61-5.31-12.66a.89.89 0 0 0-.9-.57h-1.3a.77.77 0 0 0-.82 1.17l7.38 16.41a.82.82 0 0 0 .82.53h.23a.82.82 0 0 0 .82-.52l7.51-16.41a.82.82 0 0 0 0-.82m13.54 6.77H92.95a5.56 5.56 0 0 1 5.49-4.74 5 5 0 0 1 5 4.74m-5-7.5c-5.62 0-8.57 4.64-8.57 9.21 0 5.44 3.52 9.24 8.57 9.24a10.76 10.76 0 0 0 6.45-2c.68-.52.55-.77.21-1.31l-.48-.69a1 1 0 0 0-.59-.52c-.28-.06-.57.14-.89.36a8 8 0 0 1-4.64 1.41 6 6 0 0 1-5.57-5.74h12.55a.93.93 0 0 0 .9-.82 9.84 9.84 0 0 0 .07-1.07 7.75 7.75 0 0 0-7.47-8h-.53m21.59.75c-.46-.64-1.93-.77-3.08-.77a7.28 7.28 0 0 0-5.29 2.1l-.25-1a.87.87 0 0 0-.86-.69h-.61a1 1 0 0 0-.94.94v15.8a1 1 0 0 0 .94.94h1.13a1 1 0 0 0 .94-.94V16.02a5.45 5.45 0 0 1 4.58-2.14 4.23 4.23 0 0 1 1.81.47.9.9 0 0 0 .74.06.82.82 0 0 0 .43-.53l.49-1.36a.82.82 0 0 0-.08-.77m8.64 14.89c-3.28 0-5.69-2.79-5.69-6.48 0-3.09 1.93-6.37 5.51-6.37a6.41 6.41 0 0 1 4.48 2v9.44a8.39 8.39 0 0 1-4.3 1.38m6.33-15.27h-.52a1 1 0 0 0-.94.68l-.21.64a8.9 8.9 0 0 0-5.16-1.7c-4.7 0-8.25 4-8.25 9.22s3.59 9.24 8.37 9.24a8.71 8.71 0 0 0 4.71-1.44v1c0 4.51-2.58 5.47-4.75 5.47a6.72 6.72 0 0 1-4.3-1.81 1 1 0 0 0-.77-.3.74.74 0 0 0-.52.36l-.78 1.12a.94.94 0 0 0 .16 1.2 10 10 0 0 0 6.15 2.29c4.84 0 7.74-3.09 7.74-8.25V12.29a1 1 0 0 0-1-.94m15.12.39c-.46-.64-1.93-.77-3.08-.77a7.28 7.28 0 0 0-5.29 2.1l-.25-1a.87.87 0 0 0-.86-.69H140a1 1 0 0 0-.94.94v15.8a1 1 0 0 0 .94.94h1.13a1 1 0 0 0 .91-.94v-12.1a5.45 5.45 0 0 1 4.6-2.14 4.23 4.23 0 0 1 1.81.47.9.9 0 0 0 .74.06.82.82 0 0 0 .43-.53l.49-1.36a.82.82 0 0 0-.08-.77m13.55 6.74H153.1a5.56 5.56 0 0 1 5.49-4.74 5 5 0 0 1 5 4.74m-5-7.5c-5.62 0-8.57 4.64-8.57 9.21 0 5.44 3.52 9.24 8.57 9.24a10.76 10.76 0 0 0 6.41-2c.68-.52.55-.77.21-1.31l-.48-.69a1 1 0 0 0-.59-.52c-.28-.06-.57.14-.89.36a8 8 0 0 1-4.64 1.41A6 6 0 0 1 153 20.9h12.55a.93.93 0 0 0 .91-.82 9.84 9.84 0 0 0 .07-1.07 7.75 7.75 0 0 0-7.47-8h-.53m23.35 7.49h-10.41a5.56 5.56 0 0 1 5.53-4.77 5 5 0 0 1 5 4.74m-5-7.5c-5.62 0-8.57 4.64-8.57 9.21 0 5.44 3.52 9.24 8.57 9.24a10.76 10.76 0 0 0 6.45-2c.68-.52.55-.77.21-1.31l-.48-.69a1 1 0 0 0-.59-.52c-.28-.06-.57.14-.89.36a8 8 0 0 1-4.7 1.39 6 6 0 0 1-5.57-5.74H184a.93.93 0 0 0 .91-.82 9.84 9.84 0 0 0 .09-1.07 7.75 7.75 0 0 0-7.47-8H177m18.6 0a9 9 0 0 0-5.79 2.13l-.33-1.13a.71.71 0 0 0-.79-.63H188a1 1 0 0 0-.88.94v15.72a1 1 0 0 0 .94.94h1.13a1 1 0 0 0 .94-.94v-12a7.54 7.54 0 0 1 5.19-2.34c2.46 0 3.58 1.47 3.58 4.75v9.58a1 1 0 0 0 .94.94H201a1 1 0 0 0 .94-.94v-9.22c0-3.67-.73-7.89-6.42-7.89" fill="#706f6f"></path><path d="M24.89 0a24.89 24.89 0 0 0-14.77 44.92l.52.39a3.47 3.47 0 0 1 1.29 1.42l.73 1.49a.43.43 0 0 0 .18.19l1.71.94a.41.41 0 0 0 .56-.16l.39-.71 1.64.92a1.07 1.07 0 0 0 1.25-.17l.06-.07v-.12a1.07 1.07 0 0 0-.42-1.44l-1.64-.92.48-.89 1.64.92a1.07 1.07 0 0 0 1.49-.45v-.06a1.07 1.07 0 0 0-.24-1.38l-1.64-.92.39-.69a.41.41 0 0 0-.16-.56l-1.64-.94a.42.42 0 0 0-.25 0l-2.18.24a3.28 3.28 0 0 1-1.64-.3l-.34-.21a20.82 20.82 0 1 1 19.18 3.28c-.71.21-1.49.43-1.94.53a13.08 13.08 0 0 1-1.42.25 1 1 0 0 1-.82-.14 1.92 1.92 0 0 1-.32-1.26v-1.28c6.66-3.41 10.4-7.86 11.12-13.26C39.5 18.13 26.71 7.17 26.17 6.71l-1.36-1.14-1.31 1.19c-9.1 8.21-13.07 15.91-11.81 22.91 1.31 7.49 8.26 11.67 11.15 13.15v1.22a5.56 5.56 0 0 0 1.85 4.45 4.92 4.92 0 0 0 3.23 1.07 9 9 0 0 0 2.38-.35h.14q1.06-.24 2.06-.57a14.43 14.43 0 0 0 1.44-.5A24.89 24.89 0 0 0 25 .06zm0 16.61a2 2 0 0 0-2 2v3.61a1.713 1.713 0 0 0-2.23 2.6l2.16 1.88v2.12l-2.1-1.64a1.718 1.718 0 0 0-2.2 2.64l.07.06 4.25 3.37v4.92c-2.66-1.68-6.37-4.73-7.19-9.24-.93-5.2 2.17-11.23 9.18-17.91 3 2.93 10.08 10.67 9.12 17.95q-.7 5.27-7.09 9.15v-4.94l4.38-3.44a1.712 1.712 0 0 0-2.08-2.72l-.08.07-2.17 1.73v-2l2.4-1.91a1.732 1.732 0 1 0-2.17-2.7l-.27.21v-3.79a2 2 0 0 0-2-2z" fill="#3aaa35"></path></svg>