<?xml version="1.0"?>
<svg xmlns="http://www.w3.org/2000/svg" width="173" height="94" data-name="Layer 1" viewBox="0 0 271.63 147.03">
<title>Gloucester City Homes (logo)</title>
<path d="M270.83 44.34c8 37.25-45.87 80.52-120.44 96.63S8.85 139.97.8 102.69 46.67 22.17 121.23 6.06s141.54 1 149.59 38.28" fill="#ffc627"/>
<path d="M270.79 44.15c7.58 35.11-43.23 75.87-113.49 91.05s-133.37-1-141-36.07S59.56 23.26 129.83 8.07s133.37 1 141 36.07" fill="#245d38"/>
<path d="M97.89 68.9a15.36 15.36 0 0 0-.95-5.35 13.64 13.64 0 0 0-2.73-4.51 12.94 12.94 0 0 0-4.23-3.06 13.34 13.34 0 0 0-5.57-1.11 13 13 0 0 0-5.51 1.11 12.24 12.24 0 0 0-4.06 3 13.21 13.21 0 0 0-2.56 4.45 16.47 16.47 0 0 0-.89 5.46 16.11 16.11 0 0 0 .89 5.34 13.81 13.81 0 0 0 2.56 4.51 12.18 12.18 0 0 0 9.58 4.29 13.11 13.11 0 0 0 9.85-4.23 13.47 13.47 0 0 0 2.67-4.45 15.65 15.65 0 0 0 .95-5.46m17.37 28.54a38.93 38.93 0 0 1-2.34 14.12 26.59 26.59 0 0 1-6.57 10 26.91 26.91 0 0 1-10.3 5.9 43.77 43.77 0 0 1-13.42 1.95 54.45 54.45 0 0 1-15.09-2.23 41.4 41.4 0 0 1-13.38-6.46l9.13-13a26.79 26.79 0 0 0 8.85 5.29 28.26 28.26 0 0 0 9.52 1.73q8 0 11.86-4.23t3.84-11.25V90.2h-.33a18 18 0 0 1-6.9 5.35 23.4 23.4 0 0 1-9.91 2 26.34 26.34 0 0 1-11.25-2.28 24.61 24.61 0 0 1-8.3-6.18 27 27 0 0 1-5.18-9.08 33.44 33.44 0 0 1-1.78-11 34 34 0 0 1 1.78-11 28.15 28.15 0 0 1 5.18-9.24 24.76 24.76 0 0 1 19.43-8.8 24.54 24.54 0 0 1 10 2.12 17.38 17.38 0 0 1 7.68 6.57H98v-9.19h17.26zm45.64-38a11.11 11.11 0 0 0-4.23-3.23 13 13 0 0 0-5.46-1.22 11.54 11.54 0 0 0-5.23 1.17 12.73 12.73 0 0 0-4 3.12 14.7 14.7 0 0 0-2.62 4.51 15.62 15.62 0 0 0-.95 5.46 16.46 16.46 0 0 0 .89 5.46 13.29 13.29 0 0 0 2.62 4.51 12.44 12.44 0 0 0 4.12 3.06 12.65 12.65 0 0 0 5.4 1.11 15.13 15.13 0 0 0 5.51-1.06 10.57 10.57 0 0 0 4.4-3.06l10.13 12.36a23.81 23.81 0 0 1-8.91 5.23 35.09 35.09 0 0 1-11.58 1.89 36.69 36.69 0 0 1-12.27-2 28.47 28.47 0 0 1-9.89-5.85 27.45 27.45 0 0 1-6.61-9.3 32.66 32.66 0 0 1 0-24.61 27.47 27.47 0 0 1 6.61-9.3 29.2 29.2 0 0 1 9.89-5.9 35.49 35.49 0 0 1 12.15-2.06 32.16 32.16 0 0 1 6 .56 40.21 40.21 0 0 1 5.68 1.5 26 26 0 0 1 5 2.34 21.18 21.18 0 0 1 4 3.06zm51.37 37.53V66.89a28.39 28.39 0 0 0-.33-4.45 10.58 10.58 0 0 0-1.28-3.73 7.23 7.23 0 0 0-2.5-2.56 7.64 7.64 0 0 0-4-.95 8.65 8.65 0 0 0-7.35 3.4 13.56 13.56 0 0 0-2.56 8.41v30h-18.28V8.67h18.26v39.88h.22a17.4 17.4 0 0 1 6-6 18.11 18.11 0 0 1 9.91-2.62 20.44 20.44 0 0 1 9.52 2 18.24 18.24 0 0 1 6.28 5.2 20.44 20.44 0 0 1 3.45 7.29 33.09 33.09 0 0 1 1.06 8.24v34.3z" fill="#c4d600"/>
</svg>