<?xml version="1.0"?>
<svg xmlns="http://www.w3.org/2000/svg" width="42.9mm" height="51.05mm" viewBox="0 0 121.61 144.7">
<title>paradigm_logo</title>
<path fill="#fff" d="M.1 144.7V0h121.5v144.7H.1z"/>
<path d="M56.6 94.2H41.3L0 144.7 28.5 0h45.7c30.5 0 46.9 17.1 47.4 40.4.6 27.7-20 53.8-65 53.8" fill="#009bbb"/>
<path d="M29.5 41h-.8l-1.4 6h.8c2.5 0 4.1-1.3 4.1-3.5a2.37 2.37 0 0 0-2.7-2.5zm-1.9 8.5h-.8l-1.3 6h-3.2L26 38.3h3.9c3.6 0 5.5 2 5.5 4.8 0 3.3-2.5 6.4-7.8 6.4zm13.7.3c-2.7 0-4.1.9-4.1 2.1a1.37 1.37 0 0 0 1.4 1.4 3.76 3.76 0 0 0 3.2-2.8c.1-.3.1-.5.2-.8h-.7zm4-.6l-.4 1.5a9.93 9.93 0 0 0-.3 4.4l-2.5.6a6.47 6.47 0 0 1-.4-2 5.37 5.37 0 0 1-3.9 2.1 3.12 3.12 0 0 1-3.4-3.3c0-3.5 3.1-4.7 6.9-4.8h1.3a1.27 1.27 0 0 0 .1-.6c0-1-.6-1.7-2.1-1.7a9.55 9.55 0 0 0-3.6.9l-.4-2.2a11.25 11.25 0 0 1 4.6-1c2.1 0 4.6.7 4.6 3.8-.1.5-.3 1.4-.5 2.3zm9.3-3a3.82 3.82 0 0 0-1.3-.4c-1.1 0-2.4.9-3.4 5.3l-.9 4.4h-3.1l2.7-12.3H51l-.2 2.4c.8-1.5 1.5-2.6 3.2-2.6a3.55 3.55 0 0 1 2 .8l-1.4 2.4m7.1 3.6c-2.7 0-4.1.9-4.1 2.1a1.37 1.37 0 0 0 1.4 1.4 3.76 3.76 0 0 0 3.2-2.8c.1-.3.1-.5.2-.8h-.7zm3.9-.6l-.3 1.5a9.93 9.93 0 0 0-.3 4.4l-2.5.6a6.47 6.47 0 0 1-.4-2 5.37 5.37 0 0 1-3.9 2.1 3.12 3.12 0 0 1-3.4-3.3c0-3.5 3.1-4.7 6.9-4.8H63a1.27 1.27 0 0 0 .1-.6c0-1-.6-1.7-2.1-1.7a9.55 9.55 0 0 0-3.6.9l-.4-2.2a11.25 11.25 0 0 1 4.6-1c2.1 0 4.6.7 4.6 3.8a18.39 18.39 0 0 0-.6 2.3zm8.9-3.9a4.38 4.38 0 0 0-4.5 4.55 3 3 0 0 0 3 3.3 3.34 3.34 0 0 0 1.5-.3l1.6-7.3a5 5 0 0 0-1.6-.25zm2.7 9.5a10.53 10.53 0 0 1-4.4 1c-3.8 0-5.9-2.4-5.9-5.6 0-4.7 3.5-7.3 7.5-7.3a7.32 7.32 0 0 1 2.2.3l1.2-5.5 3.3-.7-3.9 17.8zm5.1.7h-3l2.5-11.6 3.2-.7-2.7 12.3M84 41.2a1.58 1.58 0 0 1-1.6-1.6 2 2 0 0 1 2-2 1.61 1.61 0 0 1 1.7 1.6 2.16 2.16 0 0 1-2.1 2m8.8 4.2c-2.9 0-4.3 2.9-4.3 5.2 0 1.5.4 2.6 1.6 2.6.9 0 2.8-.9 3.7-4.8l.6-2.8a8.75 8.75 0 0 0-1.6-.2zm2.5 10.2c-1 4.4-3.3 6.1-6.7 6.1a8.25 8.25 0 0 1-4.3-1l1-2.4a6.41 6.41 0 0 0 3.1.9c2.2 0 3.3-1.1 3.9-3.6l.4-1.7a4.69 4.69 0 0 1-3.7 1.9c-1.9 0-3.6-1.3-3.6-4.6 0-4.1 2.5-8.3 8.5-8.3a10 10 0 0 1 4 .8l-2.6 11.9zm21.8-7.6l-1.6 7.5h-3.2l1.6-7.1a12.23 12.23 0 0 0 .3-1.7 1 1 0 0 0-1-1.1c-.9 0-3.1 1-4.1 5.3l-1 4.6H105l1.6-7.1a15.47 15.47 0 0 0 .3-1.7.94.94 0 0 0-1-1c-1 0-3.2 1-4.1 5.2l-1 4.7h-3.1l2.5-11.9h2.3l.1 2a6.06 6.06 0 0 1 4.6-2.7 2.43 2.43 0 0 1 2.7 2.7 6.27 6.27 0 0 1 4.8-2.7 2.48 2.48 0 0 1 2.8 2.6c-.1.7-.3 1.6-.4 2.4" fill="#fff"/>
</svg>