<?xml version="1.0" encoding="utf-8"?>
<!-- Generator: Adobe Illustrator 15.1.0, SVG Export Plug-In  -->
<!DOCTYPE svg PUBLIC "-//W3C//DTD SVG 1.1//EN" "http://www.w3.org/Graphics/SVG/1.1/DTD/svg11.dtd" [
	<!ENTITY ns_flows "http://ns.adobe.com/Flows/1.0/">
]>
<svg version="1.1"
	 xmlns="http://www.w3.org/2000/svg" xmlns:xlink="http://www.w3.org/1999/xlink" xmlns:a="http://ns.adobe.com/AdobeSVGViewerExtensions/3.0/"
	 x="0px" y="0px" width="236px" height="54px" viewBox="-0.617 -0.24 236 54" enable-background="new -0.617 -0.24 236 54"
	 xml:space="preserve">
<defs>
</defs>
<path fill="#000000" d="M3.813,18.036v10.589H0V0.316h8.356c1.791,0,3.348,0.208,4.672,0.623c1.324,0.415,2.42,1.004,3.289,1.768
	c0.87,0.764,1.518,1.686,1.946,2.766c0.428,1.08,0.642,2.285,0.642,3.615c0,1.317-0.23,2.522-0.691,3.615s-1.136,2.035-2.025,2.825
	c-0.889,0.791-1.992,1.406-3.309,1.847c-1.317,0.441-2.825,0.662-4.524,0.662H3.813z M3.813,14.994h4.544
	c1.093,0,2.058-0.145,2.894-0.435c0.836-0.29,1.538-0.695,2.104-1.215c0.566-0.521,0.994-1.143,1.284-1.867
	c0.29-0.724,0.435-1.521,0.435-2.39c0-1.804-0.557-3.213-1.669-4.228c-1.113-1.014-2.795-1.521-5.047-1.521H3.813V14.994z"/>
<path fill="#000000" d="M28.289,28.625h-3.833V0.316h3.833V28.625z"/>
<path fill="#000000" d="M38.61,0.444c0.165,0.086,0.352,0.26,0.563,0.523L55.57,22.303c-0.04-0.342-0.066-0.675-0.079-0.998
	c-0.013-0.322-0.02-0.635-0.02-0.938V0.316h3.358v28.309h-1.936c-0.303,0-0.556-0.052-0.76-0.158
	c-0.205-0.105-0.405-0.283-0.603-0.533L39.154,6.618C39.18,6.947,39.2,7.27,39.213,7.586s0.02,0.606,0.02,0.869v20.17h-3.358V0.316
	h1.976C38.192,0.316,38.446,0.359,38.61,0.444z"/>
<path fill="#000000" d="M69.952,12.722h1.442c0.5,0,0.899-0.063,1.195-0.188c0.296-0.125,0.576-0.339,0.839-0.642l9.423-10.668
	c0.289-0.329,0.569-0.563,0.84-0.701c0.27-0.138,0.615-0.208,1.037-0.208h3.259L77.202,12.505c-0.276,0.303-0.536,0.56-0.78,0.771
	c-0.243,0.211-0.504,0.382-0.78,0.514c0.369,0.119,0.691,0.296,0.968,0.533c0.277,0.237,0.566,0.534,0.869,0.889l11.261,13.414
	H85.42c-0.251,0-0.462-0.02-0.633-0.059s-0.319-0.092-0.444-0.158s-0.24-0.151-0.346-0.257s-0.211-0.217-0.316-0.336l-9.778-11.241
	c-0.145-0.158-0.28-0.292-0.405-0.405c-0.125-0.112-0.271-0.208-0.435-0.287c-0.165-0.079-0.356-0.135-0.573-0.167
	s-0.484-0.05-0.8-0.05h-1.739v12.959h-3.813V0.316h3.813V12.722z"/>
<path fill="#000000" d="M107.15,4.741c-0.118,0.198-0.244,0.346-0.375,0.444c-0.132,0.099-0.304,0.148-0.514,0.148
	c-0.225,0-0.484-0.112-0.78-0.336c-0.297-0.224-0.672-0.471-1.126-0.741c-0.455-0.27-1.001-0.517-1.64-0.741
	c-0.64-0.224-1.413-0.336-2.321-0.336c-0.856,0-1.613,0.115-2.272,0.346c-0.658,0.23-1.208,0.543-1.649,0.938
	c-0.441,0.395-0.773,0.859-0.997,1.393c-0.225,0.533-0.336,1.109-0.336,1.729c0,0.79,0.194,1.445,0.582,1.966
	c0.389,0.52,0.902,0.965,1.541,1.333s1.363,0.688,2.174,0.958c0.81,0.27,1.64,0.55,2.488,0.839c0.85,0.29,1.68,0.616,2.489,0.978
	c0.811,0.362,1.534,0.82,2.174,1.373c0.638,0.553,1.151,1.231,1.54,2.035s0.583,1.791,0.583,2.963c0,1.238-0.211,2.4-0.632,3.487
	c-0.422,1.086-1.037,2.031-1.848,2.834c-0.81,0.804-1.804,1.436-2.982,1.896s-2.519,0.691-4.021,0.691
	c-1.831,0-3.5-0.333-5.008-0.998c-1.508-0.665-2.795-1.563-3.862-2.696l1.106-1.818c0.105-0.145,0.233-0.267,0.386-0.365
	c0.15-0.099,0.318-0.148,0.503-0.148c0.277,0,0.593,0.148,0.948,0.444c0.356,0.296,0.801,0.622,1.334,0.978
	c0.533,0.355,1.179,0.681,1.936,0.978c0.758,0.296,1.683,0.445,2.776,0.445c0.908,0,1.718-0.125,2.43-0.375
	c0.711-0.25,1.313-0.603,1.808-1.057c0.493-0.454,0.872-0.998,1.136-1.629c0.263-0.632,0.395-1.337,0.395-2.114
	c0-0.855-0.194-1.557-0.582-2.104c-0.389-0.546-0.899-1.004-1.531-1.373s-1.354-0.682-2.163-0.938
	c-0.811-0.257-1.64-0.52-2.489-0.79s-1.68-0.583-2.489-0.938s-1.531-0.816-2.163-1.383c-0.632-0.566-1.143-1.274-1.531-2.124
	c-0.389-0.85-0.583-1.9-0.583-3.151c0-1.001,0.194-1.969,0.583-2.904c0.389-0.935,0.951-1.765,1.689-2.489
	c0.737-0.724,1.649-1.304,2.736-1.738C97.677,0.217,98.925,0,100.334,0c1.58,0,3.022,0.25,4.326,0.75
	c1.304,0.501,2.443,1.225,3.418,2.173L107.15,4.741z"/>
<path fill="#000000" d="M132.871,0.316v3.22h-9.146v25.089h-3.832V3.536h-9.187v-3.22H132.871z"/>
<path fill="#000000" d="M161.259,14.48c0,2.121-0.336,4.066-1.008,5.837c-0.672,1.771-1.62,3.296-2.845,4.573
	c-1.225,1.278-2.696,2.269-4.415,2.973c-1.719,0.705-3.618,1.057-5.699,1.057s-3.978-0.352-5.689-1.057
	c-1.712-0.704-3.181-1.695-4.405-2.973c-1.225-1.277-2.173-2.802-2.845-4.573c-0.672-1.771-1.008-3.717-1.008-5.837
	c0-2.12,0.336-4.066,1.008-5.838c0.672-1.771,1.62-3.299,2.845-4.583s2.693-2.282,4.405-2.993C143.315,0.355,145.211,0,147.292,0
	s3.98,0.355,5.699,1.067c1.719,0.711,3.19,1.708,4.415,2.993s2.173,2.812,2.845,4.583C160.923,10.414,161.259,12.36,161.259,14.48z
	 M157.328,14.48c0-1.738-0.237-3.299-0.711-4.682c-0.475-1.383-1.146-2.551-2.015-3.506c-0.869-0.955-1.924-1.689-3.161-2.203
	c-1.238-0.514-2.621-0.771-4.148-0.771c-1.515,0-2.892,0.257-4.129,0.771c-1.238,0.514-2.295,1.248-3.171,2.203
	c-0.876,0.955-1.551,2.124-2.024,3.506c-0.475,1.383-0.712,2.944-0.712,4.682s0.237,3.296,0.712,4.672
	c0.474,1.376,1.148,2.542,2.024,3.497c0.876,0.955,1.933,1.686,3.171,2.193c1.237,0.507,2.614,0.761,4.129,0.761
	c1.527,0,2.91-0.253,4.148-0.761c1.237-0.507,2.292-1.238,3.161-2.193c0.869-0.955,1.54-2.12,2.015-3.497
	C157.09,17.776,157.328,16.219,157.328,14.48z"/>
<path fill="#000000" d="M169.23,0.444c0.164,0.086,0.352,0.26,0.563,0.523l16.396,21.335c-0.039-0.342-0.065-0.675-0.079-0.998
	c-0.013-0.322-0.02-0.635-0.02-0.938V0.316h3.358v28.309h-1.936c-0.304,0-0.557-0.052-0.761-0.158
	c-0.204-0.105-0.405-0.283-0.603-0.533L169.773,6.618c0.026,0.329,0.046,0.652,0.06,0.968c0.013,0.316,0.02,0.606,0.02,0.869v20.17
	h-3.358V0.316h1.976C168.811,0.316,169.065,0.359,169.23,0.444z"/>
<path fill="#000000" d="M213.807,0.316v3.122h-13.591v9.403h11.003v3.003h-11.003v9.66h13.591v3.121h-17.443V0.316H213.807z"/>
<path fill="#000000" d="M233.819,4.741c-0.118,0.198-0.244,0.346-0.375,0.444c-0.132,0.099-0.304,0.148-0.514,0.148
	c-0.225,0-0.484-0.112-0.78-0.336c-0.297-0.224-0.672-0.471-1.126-0.741c-0.455-0.27-1.001-0.517-1.64-0.741
	c-0.64-0.224-1.413-0.336-2.321-0.336c-0.856,0-1.613,0.115-2.272,0.346c-0.658,0.23-1.208,0.543-1.649,0.938
	c-0.441,0.395-0.773,0.859-0.997,1.393c-0.225,0.533-0.336,1.109-0.336,1.729c0,0.79,0.194,1.445,0.582,1.966
	c0.389,0.52,0.902,0.965,1.541,1.333s1.363,0.688,2.174,0.958c0.81,0.27,1.64,0.55,2.488,0.839c0.85,0.29,1.68,0.616,2.489,0.978
	c0.811,0.362,1.534,0.82,2.174,1.373c0.638,0.553,1.151,1.231,1.54,2.035s0.583,1.791,0.583,2.963c0,1.238-0.211,2.4-0.632,3.487
	c-0.422,1.086-1.037,2.031-1.848,2.834c-0.81,0.804-1.804,1.436-2.982,1.896s-2.519,0.691-4.021,0.691
	c-1.831,0-3.5-0.333-5.008-0.998c-1.508-0.665-2.795-1.563-3.862-2.696l1.106-1.818c0.105-0.145,0.233-0.267,0.386-0.365
	c0.15-0.099,0.318-0.148,0.503-0.148c0.277,0,0.593,0.148,0.948,0.444c0.356,0.296,0.801,0.622,1.334,0.978
	c0.533,0.355,1.179,0.681,1.936,0.978c0.758,0.296,1.683,0.445,2.776,0.445c0.908,0,1.718-0.125,2.43-0.375
	c0.711-0.25,1.313-0.603,1.808-1.057c0.493-0.454,0.872-0.998,1.136-1.629c0.263-0.632,0.395-1.337,0.395-2.114
	c0-0.855-0.194-1.557-0.582-2.104c-0.389-0.546-0.899-1.004-1.531-1.373s-1.354-0.682-2.163-0.938
	c-0.811-0.257-1.64-0.52-2.489-0.79s-1.68-0.583-2.489-0.938s-1.531-0.816-2.163-1.383c-0.632-0.566-1.143-1.274-1.531-2.124
	c-0.389-0.85-0.583-1.9-0.583-3.151c0-1.001,0.194-1.969,0.583-2.904c0.389-0.935,0.951-1.765,1.689-2.489
	c0.737-0.724,1.649-1.304,2.736-1.738C224.346,0.217,225.594,0,227.003,0c1.58,0,3.022,0.25,4.326,0.75
	c1.304,0.501,2.443,1.225,3.418,2.173L233.819,4.741z"/>
<path fill="#000000" d="M53.299,40.397v8.314c0,1.477-0.428,2.631-1.283,3.463s-2.048,1.248-3.577,1.248
	c-1.488,0-2.65-0.417-3.485-1.252s-1.252-2-1.252-3.494v-8.279h0.905v8.314c0,1.236,0.343,2.199,1.028,2.887
	s1.655,1.033,2.909,1.033c1.225,0,2.174-0.338,2.848-1.015s1.011-1.616,1.011-2.817v-8.402H53.299z"/>
<path fill="#000000" d="M63.89,49.933c0,1.072-0.394,1.922-1.182,2.549s-1.835,0.94-3.142,0.94c-1.57,0-2.774-0.173-3.612-0.519
	v-0.896c0.926,0.393,2.106,0.589,3.542,0.589c1.055,0,1.891-0.242,2.509-0.725s0.927-1.118,0.927-1.903
	c0-0.486-0.103-0.889-0.308-1.208s-0.539-0.611-1.002-0.875s-1.143-0.548-2.039-0.853c-1.313-0.451-2.219-0.939-2.72-1.463
	s-0.751-1.223-0.751-2.096c0-0.961,0.376-1.745,1.129-2.351s1.721-0.91,2.905-0.91c1.207,0,2.341,0.229,3.401,0.686l-0.325,0.773
	c-1.066-0.445-2.086-0.668-3.059-0.668c-0.949,0-1.705,0.22-2.268,0.659s-0.844,1.037-0.844,1.793c0,0.475,0.086,0.864,0.259,1.169
	s0.456,0.579,0.848,0.822s1.066,0.535,2.021,0.875c1.002,0.346,1.755,0.681,2.259,1.006s0.872,0.694,1.103,1.107
	S63.89,49.347,63.89,49.933z"/>
<path fill="#000000" d="M73.628,53.247h-7.022v-12.85h7.022v0.826h-6.126v4.86h5.783v0.826h-5.783v5.511h6.126V53.247z"/>
<path fill="#000000" d="M86.293,46.699c0,2.156-0.565,3.787-1.696,4.891s-2.792,1.657-4.983,1.657h-3.076v-12.85h3.472
	c2.051,0,3.611,0.536,4.68,1.608S86.293,44.642,86.293,46.699z M85.318,46.734c0-1.84-0.467-3.224-1.402-4.153
	s-2.307-1.393-4.118-1.393h-2.364v11.268h2.127C83.399,52.456,85.318,50.548,85.318,46.734z"/>
<path fill="#000000" d="M99.407,41.021c-1.611,0-2.88,0.516-3.806,1.547s-1.389,2.443-1.389,4.236c0,1.834,0.437,3.258,1.31,4.271
	s2.121,1.521,3.744,1.521c1.078,0,2.068-0.138,2.971-0.413v0.791c-0.85,0.299-1.91,0.448-3.182,0.448
	c-1.805,0-3.226-0.583-4.263-1.749s-1.556-2.795-1.556-4.887c0-1.307,0.248-2.458,0.743-3.454s1.207-1.765,2.136-2.307
	s2.008-0.813,3.239-0.813c1.254,0,2.376,0.234,3.366,0.703l-0.36,0.809C101.422,41.255,100.438,41.021,99.407,41.021z"/>
<path fill="#000000" d="M111.29,48.711h-5.221l-1.793,4.535h-0.993l5.168-12.902h0.571l5.063,12.902h-1.011L111.29,48.711z
	 M106.394,47.903h4.597l-1.749-4.632c-0.146-0.363-0.322-0.867-0.527-1.512c-0.158,0.563-0.331,1.072-0.519,1.529L106.394,47.903z"
	/>
<path fill="#000000" d="M116.8,47.648v5.599h-0.896v-12.85h3.059c1.594,0,2.771,0.294,3.533,0.883s1.143,1.475,1.143,2.659
	c0,0.861-0.227,1.588-0.681,2.18s-1.144,1.017-2.07,1.274l3.489,5.854h-1.072l-3.313-5.599H116.8z M116.8,46.875h2.452
	c1.084,0,1.925-0.242,2.522-0.725s0.896-1.197,0.896-2.14c0-0.979-0.293-1.69-0.879-2.136s-1.541-0.668-2.865-0.668H116.8V46.875z"
	/>
<path fill="#000000" d="M136.76,41.021c-1.611,0-2.88,0.516-3.806,1.547s-1.389,2.443-1.389,4.236c0,1.834,0.437,3.258,1.31,4.271
	s2.121,1.521,3.744,1.521c1.078,0,2.068-0.138,2.971-0.413v0.791c-0.85,0.299-1.91,0.448-3.182,0.448
	c-1.805,0-3.226-0.583-4.263-1.749s-1.556-2.795-1.556-4.887c0-1.307,0.248-2.458,0.743-3.454s1.207-1.765,2.136-2.307
	s2.008-0.813,3.239-0.813c1.254,0,2.376,0.234,3.366,0.703l-0.36,0.809C138.776,41.255,137.792,41.021,136.76,41.021z"/>
<path fill="#000000" d="M149.478,53.247h-7.022v-12.85h7.022v0.826h-6.126v4.86h5.783v0.826h-5.783v5.511h6.126V53.247z"/>
<path fill="#000000" d="M161.73,53.247h-0.905l-7.611-11.408h-0.07c0.07,1.359,0.105,2.385,0.105,3.076v8.332h-0.861v-12.85h0.896
	l7.603,11.391h0.053c-0.053-1.055-0.079-2.057-0.079-3.006v-8.385h0.87V53.247z"/>
<path fill="#000000" d="M168.717,53.247h-0.905V41.241h-4.175v-0.844h9.255v0.844h-4.175V53.247z"/>
<path fill="#000000" d="M175.696,47.648v5.599h-0.896v-12.85h3.059c1.594,0,2.771,0.294,3.533,0.883s1.143,1.475,1.143,2.659
	c0,0.861-0.227,1.588-0.681,2.18s-1.144,1.017-2.07,1.274l3.489,5.854H182.2l-3.313-5.599H175.696z M175.696,46.875h2.452
	c1.084,0,1.925-0.242,2.522-0.725s0.896-1.197,0.896-2.14c0-0.979-0.293-1.69-0.879-2.136s-1.541-0.668-2.865-0.668h-2.127V46.875z"
	/>
<path fill="#000000" d="M192.518,53.247h-7.022v-12.85h7.022v0.826h-6.126v4.86h5.783v0.826h-5.783v5.511h6.126V53.247z"/>
<line fill="#000000" stroke="#000000" stroke-miterlimit="10" x1="0.383" y1="46.26" x2="29.383" y2="46.26"/>
<line fill="#000000" stroke="#000000" stroke-miterlimit="10" x1="206.383" y1="46.26" x2="235.383" y2="46.26"/>
</svg>
