<svg xmlns="http://www.w3.org/2000/svg" width="236" height="54" viewBox="-0.617 -0.24 236 54"><path d="M3.813 18.036v10.589H0V.316h8.356c1.791 0 3.348.208 4.672.623 1.324.415 2.42 1.004 3.289 1.768a7.119 7.119 0 0 1 1.946 2.766c.428 1.08.642 2.285.642 3.615 0 1.317-.23 2.522-.691 3.615s-1.136 2.035-2.025 2.825c-.889.791-1.992 1.406-3.309 1.847-1.317.441-2.825.662-4.524.662H3.813zm0-3.042h4.544c1.093 0 2.058-.145 2.894-.435.836-.29 1.538-.695 2.104-1.215a5.062 5.062 0 0 0 1.284-1.867c.29-.724.435-1.521.435-2.39 0-1.804-.557-3.213-1.669-4.228-1.113-1.014-2.795-1.521-5.047-1.521H3.813v11.656zm24.476 13.631h-3.833V.316h3.833v28.309zM38.61.444c.165.086.352.26.563.523L55.57 22.303c-.04-.342-.066-.675-.079-.998-.013-.322-.02-.635-.02-.938V.316h3.358v28.309h-1.936c-.303 0-.556-.052-.76-.158-.205-.105-.405-.283-.603-.533L39.154 6.618c.026.329.046.652.059.968s.02.606.02.869v20.17h-3.358V.316h1.976c.341 0 .595.043.759.128zm31.342 12.278h1.442c.5 0 .899-.063 1.195-.188.296-.125.576-.339.839-.642l9.423-10.668c.289-.329.569-.563.84-.701.27-.138.615-.208 1.037-.208h3.259l-10.785 12.19c-.276.303-.536.56-.78.771a3.473 3.473 0 0 1-.78.514c.369.119.691.296.968.533.277.237.566.534.869.889L88.74 28.626h-3.32c-.251 0-.462-.02-.633-.059s-.319-.092-.444-.158-.24-.151-.346-.257-.211-.217-.316-.336l-9.778-11.241a6.167 6.167 0 0 0-.405-.405 1.855 1.855 0 0 0-1.008-.454 5.58 5.58 0 0 0-.8-.05h-1.739v12.959h-3.813V.316h3.813v12.406zm37.198-7.981a1.515 1.515 0 0 1-.375.444.836.836 0 0 1-.514.148c-.225 0-.484-.112-.78-.336a12.562 12.562 0 0 0-1.126-.741 9.16 9.16 0 0 0-1.64-.741c-.64-.224-1.413-.336-2.321-.336-.856 0-1.613.115-2.272.346-.658.23-1.208.543-1.649.938a3.849 3.849 0 0 0-.997 1.393 4.398 4.398 0 0 0-.336 1.729c0 .79.194 1.445.582 1.966.389.52.902.965 1.541 1.333s1.363.688 2.174.958c.81.27 1.64.55 2.488.839.85.29 1.68.616 2.489.978.811.362 1.534.82 2.174 1.373.638.553 1.151 1.231 1.54 2.035s.583 1.791.583 2.963a9.57 9.57 0 0 1-.632 3.487 8.032 8.032 0 0 1-1.848 2.834c-.81.804-1.804 1.436-2.982 1.896s-2.519.691-4.021.691c-1.831 0-3.5-.333-5.008-.998s-2.795-1.563-3.862-2.696l1.106-1.818c.105-.145.233-.267.386-.365a.894.894 0 0 1 .503-.148c.277 0 .593.148.948.444.356.296.801.622 1.334.978.533.355 1.179.681 1.936.978.758.296 1.683.445 2.776.445.908 0 1.718-.125 2.43-.375a5.177 5.177 0 0 0 1.808-1.057 4.602 4.602 0 0 0 1.136-1.629c.263-.632.395-1.337.395-2.114 0-.855-.194-1.557-.582-2.104-.389-.546-.899-1.004-1.531-1.373s-1.354-.682-2.163-.938l-2.489-.79c-.849-.27-1.68-.583-2.489-.938s-1.531-.816-2.163-1.383c-.632-.566-1.143-1.274-1.531-2.124-.389-.85-.583-1.9-.583-3.151 0-1.001.194-1.969.583-2.904a7.482 7.482 0 0 1 1.689-2.489c.737-.724 1.649-1.304 2.736-1.738C97.677.217 98.925 0 100.334 0c1.58 0 3.022.25 4.326.75a9.979 9.979 0 0 1 3.418 2.173l-.928 1.818zM132.871.316v3.22h-9.146v25.089h-3.832V3.536h-9.187V.316h22.165zm28.388 14.164c0 2.121-.336 4.066-1.008 5.837-.672 1.771-1.62 3.296-2.845 4.573-1.225 1.278-2.696 2.269-4.415 2.973-1.719.705-3.618 1.057-5.699 1.057s-3.978-.352-5.689-1.057c-1.712-.704-3.181-1.695-4.405-2.973-1.225-1.277-2.173-2.802-2.845-4.573-.672-1.771-1.008-3.717-1.008-5.837 0-2.12.336-4.066 1.008-5.838.672-1.771 1.62-3.299 2.845-4.583s2.693-2.282 4.405-2.993C143.315.355 145.211 0 147.292 0s3.98.355 5.699 1.067c1.719.711 3.19 1.708 4.415 2.993s2.173 2.812 2.845 4.583c.672 1.771 1.008 3.717 1.008 5.837zm-3.931 0c0-1.738-.237-3.299-.711-4.682-.475-1.383-1.146-2.551-2.015-3.506a8.754 8.754 0 0 0-3.161-2.203c-1.238-.514-2.621-.771-4.148-.771-1.515 0-2.892.257-4.129.771a8.844 8.844 0 0 0-3.171 2.203c-.876.955-1.551 2.124-2.024 3.506-.475 1.383-.712 2.944-.712 4.682s.237 3.296.712 4.672c.474 1.376 1.148 2.542 2.024 3.497a8.734 8.734 0 0 0 3.171 2.193c1.237.507 2.614.761 4.129.761 1.527 0 2.91-.253 4.148-.761a8.646 8.646 0 0 0 3.161-2.193c.869-.955 1.54-2.12 2.015-3.497.473-1.376.711-2.933.711-4.672zM169.23.444c.164.086.352.26.563.523l16.396 21.335a14.264 14.264 0 0 1-.079-.998c-.013-.322-.02-.635-.02-.938V.316h3.358v28.309h-1.936c-.304 0-.557-.052-.761-.158-.204-.105-.405-.283-.603-.533L169.773 6.618c.026.329.046.652.06.968.013.316.02.606.02.869v20.17h-3.358V.316h1.976c.34 0 .594.043.759.128zm44.577-.128v3.122h-13.591v9.403h11.003v3.003h-11.003v9.66h13.591v3.121h-17.443V.316h17.443zm20.012 4.425a1.515 1.515 0 0 1-.375.444.836.836 0 0 1-.514.148c-.225 0-.484-.112-.78-.336a12.562 12.562 0 0 0-1.126-.741 9.16 9.16 0 0 0-1.64-.741c-.64-.224-1.413-.336-2.321-.336-.856 0-1.613.115-2.272.346-.658.23-1.208.543-1.649.938a3.849 3.849 0 0 0-.997 1.393 4.398 4.398 0 0 0-.336 1.729c0 .79.194 1.445.582 1.966.389.52.902.965 1.541 1.333s1.363.688 2.174.958c.81.27 1.64.55 2.488.839.85.29 1.68.616 2.489.978.811.362 1.534.82 2.174 1.373.638.553 1.151 1.231 1.54 2.035s.583 1.791.583 2.963a9.57 9.57 0 0 1-.632 3.487 8.032 8.032 0 0 1-1.848 2.834c-.81.804-1.804 1.436-2.982 1.896s-2.519.691-4.021.691c-1.831 0-3.5-.333-5.008-.998s-2.795-1.563-3.862-2.696l1.106-1.818c.105-.145.233-.267.386-.365a.894.894 0 0 1 .503-.148c.277 0 .593.148.948.444.356.296.801.622 1.334.978.533.355 1.179.681 1.936.978.758.296 1.683.445 2.776.445.908 0 1.718-.125 2.43-.375a5.177 5.177 0 0 0 1.808-1.057 4.602 4.602 0 0 0 1.136-1.629c.263-.632.395-1.337.395-2.114 0-.855-.194-1.557-.582-2.104-.389-.546-.899-1.004-1.531-1.373s-1.354-.682-2.163-.938l-2.489-.79c-.849-.27-1.68-.583-2.489-.938s-1.531-.816-2.163-1.383c-.632-.566-1.143-1.274-1.531-2.124-.389-.85-.583-1.9-.583-3.151 0-1.001.194-1.969.583-2.904a7.482 7.482 0 0 1 1.689-2.489c.737-.724 1.649-1.304 2.736-1.738C224.346.217 225.594 0 227.003 0c1.58 0 3.022.25 4.326.75a9.979 9.979 0 0 1 3.418 2.173l-.928 1.818zM53.299 40.397v8.314c0 1.477-.428 2.631-1.283 3.463s-2.048 1.248-3.577 1.248c-1.488 0-2.65-.417-3.485-1.252s-1.252-2-1.252-3.494v-8.279h.905v8.314c0 1.236.343 2.199 1.028 2.887s1.655 1.033 2.909 1.033c1.225 0 2.174-.338 2.848-1.015s1.011-1.616 1.011-2.817v-8.402h.896zm10.591 9.536c0 1.072-.394 1.922-1.182 2.549s-1.835.94-3.142.94c-1.57 0-2.774-.173-3.612-.519v-.896c.926.393 2.106.589 3.542.589 1.055 0 1.891-.242 2.509-.725s.927-1.118.927-1.903c0-.486-.103-.889-.308-1.208s-.539-.611-1.002-.875-1.143-.548-2.039-.853c-1.313-.451-2.219-.939-2.72-1.463s-.751-1.223-.751-2.096c0-.961.376-1.745 1.129-2.351s1.721-.91 2.905-.91a8.5 8.5 0 0 1 3.401.686l-.325.773c-1.066-.445-2.086-.668-3.059-.668-.949 0-1.705.22-2.268.659s-.844 1.037-.844 1.793c0 .475.086.864.259 1.169s.456.579.848.822 1.066.535 2.021.875c1.002.346 1.755.681 2.259 1.006s.872.694 1.103 1.107.349.913.349 1.499zm9.738 3.314h-7.022v-12.85h7.022v.826h-6.126v4.86h5.783v.826h-5.783v5.511h6.126v.827zm12.665-6.548c0 2.156-.565 3.787-1.696 4.891s-2.792 1.657-4.983 1.657h-3.076v-12.85h3.472c2.051 0 3.611.536 4.68 1.608s1.603 2.637 1.603 4.694zm-.975.035c0-1.84-.467-3.224-1.402-4.153s-2.307-1.393-4.118-1.393h-2.364v11.268h2.127c3.838 0 5.757-1.908 5.757-5.722zm14.089-5.713c-1.611 0-2.88.516-3.806 1.547s-1.389 2.443-1.389 4.236c0 1.834.437 3.258 1.31 4.271s2.121 1.521 3.744 1.521c1.078 0 2.068-.138 2.971-.413v.791c-.85.299-1.91.448-3.182.448-1.805 0-3.226-.583-4.263-1.749s-1.556-2.795-1.556-4.887c0-1.307.248-2.458.743-3.454s1.207-1.765 2.136-2.307 2.008-.813 3.239-.813c1.254 0 2.376.234 3.366.703l-.36.809a6.518 6.518 0 0 0-2.953-.703zm11.883 7.69h-5.221l-1.793 4.535h-.993l5.168-12.902h.571l5.063 12.902h-1.011l-1.784-4.535zm-4.896-.808h4.597l-1.749-4.632a22.63 22.63 0 0 1-.527-1.512 13.897 13.897 0 0 1-.519 1.529l-1.802 4.615zm10.406-.255v5.599h-.896v-12.85h3.059c1.594 0 2.771.294 3.533.883s1.143 1.475 1.143 2.659c0 .861-.227 1.588-.681 2.18s-1.144 1.017-2.07 1.274l3.489 5.854h-1.072l-3.313-5.599H116.8zm0-.773h2.452c1.084 0 1.925-.242 2.522-.725s.896-1.197.896-2.14c0-.979-.293-1.69-.879-2.136s-1.541-.668-2.865-.668H116.8v5.669zm19.96-5.854c-1.611 0-2.88.516-3.806 1.547s-1.389 2.443-1.389 4.236c0 1.834.437 3.258 1.31 4.271s2.121 1.521 3.744 1.521c1.078 0 2.068-.138 2.971-.413v.791c-.85.299-1.91.448-3.182.448-1.805 0-3.226-.583-4.263-1.749s-1.556-2.795-1.556-4.887c0-1.307.248-2.458.743-3.454s1.207-1.765 2.136-2.307 2.008-.813 3.239-.813c1.254 0 2.376.234 3.366.703l-.36.809a6.512 6.512 0 0 0-2.953-.703zm12.718 12.226h-7.022v-12.85h7.022v.826h-6.126v4.86h5.783v.826h-5.783v5.511h6.126v.827zm12.252 0h-.905l-7.611-11.408h-.07c.07 1.359.105 2.385.105 3.076v8.332h-.861v-12.85h.896l7.603 11.391h.053a60.012 60.012 0 0 1-.079-3.006v-8.385h.87v12.85zm6.987 0h-.905V41.241h-4.175v-.844h9.255v.844h-4.175v12.006zm6.979-5.599v5.599h-.896v-12.85h3.059c1.594 0 2.771.294 3.533.883s1.143 1.475 1.143 2.659c0 .861-.227 1.588-.681 2.18s-1.144 1.017-2.07 1.274l3.489 5.854H182.2l-3.313-5.599h-3.191zm0-.773h2.452c1.084 0 1.925-.242 2.522-.725s.896-1.197.896-2.14c0-.979-.293-1.69-.879-2.136s-1.541-.668-2.865-.668h-2.127v5.669zm16.822 6.372h-7.022v-12.85h7.022v.826h-6.126v4.86h5.783v.826h-5.783v5.511h6.126v.827z"/><path stroke="#000" stroke-miterlimit="10" d="M.383 46.26h29m177 0h29"/></svg>