<?xml version="1.0"?>
<svg xmlns="http://www.w3.org/2000/svg" xmlns:xlink="http://www.w3.org/1999/xlink" viewBox="0 0 1020.47 284.64">
<defs>
    <linearGradient id="linear-gradient" x1="71.89" y1="159.19" x2="141.98" y2="55.27" gradientUnits="userSpaceOnUse">
        <stop offset="0" stop-color="#3f86ec"/>
        <stop offset="1" stop-color="#e320a0"/>
    </linearGradient>
    <linearGradient id="linear-gradient-2" x1="47.05" y1="195.29" x2="166.45" y2="18.28" xlink:href="#linear-gradient"/>
</defs>
<title>Asset 1</title>
<g id="Layer_2" data-name="Layer 2">
    <g id="Layer_2-2" data-name="Layer 2">
        <path class="cls-1" style="fill:url(#linear-gradient);" d="M106.94,44.57a62.67,62.67,0,1,0,62.66,62.66A62.66,62.66,0,0,0,106.94,44.57Zm0,107.5a44.83,44.83,0,1,1,44.83-44.84A44.85,44.85,0,0,1,106.94,152.07Z"/>
        <path class="cls-2" style="fill:url(#linear-gradient-2);" d="M106.75,0A106.77,106.77,0,0,0,0,106.84c0,54.1,40.47,98.8,92.47,105.85V190.4a84.73,84.73,0,1,1,28,0v22.29A106.82,106.82,0,0,0,106.75,0Z"/>
        <path class="cls-3" style="fill:#1171fb;" d="M269.93,32.28a4.34,4.34,0,0,1,4.19-4.19h26.45a4.34,4.34,0,0,1,4.19,4.19V178.22a4.34,4.34,0,0,1-4.19,4.19H274.12a4.34,4.34,0,0,1-4.19-4.19Z"/>
        <path class="cls-3" style="fill:#1171fb;" d="M354.34,29.42a4.21,4.21,0,0,1,4-3.53h3.53a4.87,4.87,0,0,1,3.75,2.2l51.14,95.23h.44l51.14-95.23a4.87,4.87,0,0,1,3.75-2.2h3.53a4.21,4.21,0,0,1,4,3.53l24.91,148.14a4,4,0,0,1-4.19,4.85h-26a4.48,4.48,0,0,1-4.19-3.53l-9.92-68.12h-.44l-37,71.42a5.16,5.16,0,0,1-3.75,2.42h-4a4.79,4.79,0,0,1-3.75-2.42L374,110.76h-.44l-9.7,68.12a4.29,4.29,0,0,1-4.19,3.53h-26a4,4,0,0,1-4.19-4.85Z"/>
        <path class="cls-3" style="fill:#1171fb;" d="M527.13,32.28a4.19,4.19,0,0,1,4.19-4.19h53.13c29.1,0,49.38,22,49.38,48.72,0,27.34-20.28,49.6-49.16,49.6H561.52v51.8a4.34,4.34,0,0,1-4.19,4.19h-26a4.19,4.19,0,0,1-4.19-4.19Zm56.65,61.94c9.48,0,16.09-7.49,16.09-17.42,0-9.26-6.61-16.31-16.09-16.31H561.52V94.23Z"/>
        <path class="cls-3" style="fill:#1171fb;" d="M618.78,176.67l69-148.36a4.48,4.48,0,0,1,3.75-2.42h2.21a4.48,4.48,0,0,1,3.75,2.42l69,148.36a3.89,3.89,0,0,1-3.75,5.73H738.26c-4,0-5.73-1.32-7.72-5.51l-7.94-17.42h-60l-7.94,17.63a8.21,8.21,0,0,1-7.94,5.29H622.53A3.89,3.89,0,0,1,618.78,176.67Zm90.6-47.17L692.63,93.12h-.22L675.88,129.5Z"/>
        <path class="cls-3" style="fill:#1171fb;" d="M845.46,25.89c22,0,38.36,6.83,53.35,20.5a4.1,4.1,0,0,1,.22,6.17L881.84,70.42a3.86,3.86,0,0,1-5.51,0,43.4,43.4,0,0,0-29.76-11.24c-24.91,0-43.21,20.72-43.21,45.41,0,24.47,18.52,44.75,43.43,44.75,12.13,0,21.6-3.75,29.54-10.58,1.54-1.32,4.41-1.32,5.73.22l17.19,18.3a4.41,4.41,0,0,1-.22,6c-15,14.55-33.95,21.38-53.57,21.38-44.09,0-79.58-35-79.58-79.14A79.4,79.4,0,0,1,845.46,25.89Z"/>
        <path class="cls-3" style="fill:#1171fb;" d="M948.4,60.5H916.88a4.19,4.19,0,0,1-4.19-4.19v-24a4.19,4.19,0,0,1,4.19-4.19h97.88a4.19,4.19,0,0,1,4.19,4.19v24a4.19,4.19,0,0,1-4.19,4.19H983.23V178.22A4.34,4.34,0,0,1,979,182.4H952.59a4.34,4.34,0,0,1-4.19-4.19Z"/>
        <path class="cls-3" style="fill:#1171fb;" d="M271.3,259l.7-.93c.54-.62,1.08-.85,1.7-.31.77.7,6.5,6,14.33,6,7,0,13-3.79,13-10.38,0-6.89-5.65-10-15-13.16-9-3.18-14.94-6.35-14.94-15.25,0-5.81,4.65-13.7,16.72-13.7a25.43,25.43,0,0,1,13.32,3.95,1.11,1.11,0,0,1,.31,1.63l-.62,1c-.39.7-.93.85-1.7.39-.23-.16-5.42-3.64-11.38-3.64-9.52,0-13.09,5.88-13.09,10.3,0,6.58,5,9.45,12.85,12,10.61,3.64,17.34,7.36,17.34,16.34,0,8.59-8,13.78-16.88,13.78a25.22,25.22,0,0,1-16.42-6.35C271.07,260.25,270.68,259.87,271.3,259Z"/>
        <path class="cls-3" style="fill:#1171fb;" d="M332.24,229.67c10,0,18,8.44,18,18.58,0,10.45-8,18.82-18,18.82-10.22,0-18-8.36-18-18.82C314.28,238.11,322,229.67,332.24,229.67Zm0,34.07c8,0,14.32-6.89,14.32-15.49,0-8.36-6.35-15.25-14.32-15.25-8.13,0-14.56,6.89-14.56,15.25C317.68,256.85,324.11,263.74,332.24,263.74Z"/>
        <path class="cls-3" style="fill:#1171fb;" d="M378.7,229.67c6.89,0,11.61,3.49,13.16,5.5a1.12,1.12,0,0,1-.08,1.63l-.62.62c-.7.7-1.32.46-1.94-.16A15.55,15.55,0,0,0,378.7,233a15.37,15.37,0,0,0,.08,30.74c6.5,0,10.3-4.41,11.31-5.5a1,1,0,0,1,1.7-.08l.7.62a1,1,0,0,1,.23,1.39,17.91,17.91,0,0,1-14,6.89,18.7,18.7,0,0,1,0-37.4Z"/>
        <path class="cls-3" style="fill:#1171fb;" d="M403.17,217.59a3,3,0,0,1,3.1-3,3,3,0,1,1,0,6A3,3,0,0,1,403.17,217.59Zm1.47,14a1.14,1.14,0,0,1,1.16-1.16h1.08A1.25,1.25,0,0,1,408,231.6v33.45a1,1,0,0,1-1.16,1.16h-1.24c-.7,0-1-.54-1-1.16Z"/>
        <path class="cls-3" style="fill:#1171fb;" d="M434.76,243.14a32.2,32.2,0,0,1,9.21,1.63c0-7.9-1-11.92-8.05-11.92a26.17,26.17,0,0,0-10.69,2.4c-.77.31-1.24,0-1.39-.54l-.39-1.08c-.39-.7.08-1.08.46-1.32.23-.16,4.8-2.63,12.31-2.63,10.84,0,11.15,6.35,11.15,15.56v19.82a1.26,1.26,0,0,1-1.24,1.16h-.62a1,1,0,0,1-1.08-1l-.39-3.25a18.53,18.53,0,0,1-12.54,5.11c-6.66,0-11.61-4.49-11.61-11.85C419.9,248.33,425.39,243.14,434.76,243.14Zm-2.86,20.6A17,17,0,0,0,444,258.32V248a24.58,24.58,0,0,0-9.21-1.86c-6.81,0-11.54,3.72-11.54,9A8.32,8.32,0,0,0,431.9,263.74Z"/>
        <path class="cls-3" style="fill:#1171fb;" d="M462.48,213.18a1.14,1.14,0,0,1,1.16-1.16h1.08a1.25,1.25,0,0,1,1.16,1.16v51.88a1,1,0,0,1-1.16,1.16h-1.24c-.7,0-1-.54-1-1.16Z"/>
        <path class="cls-3" style="fill:#1171fb;" d="M497.33,231.76c-.39-.7-.31-1.32.46-1.32h1.78a1.16,1.16,0,0,1,1.16.85l13.09,30.2H514l13.32-30.2a1.16,1.16,0,0,1,1.16-.85h1.78c.77,0,.93.62.47,1.32l-15.49,34.46c-.31.54-.62.85-1.08.85h-.39c-.47,0-.77-.23-1.08-.85Z"/>
        <path class="cls-3" style="fill:#1171fb;" d="M552.15,243.14a32.21,32.21,0,0,1,9.21,1.63c0-7.9-1-11.92-8.05-11.92a26.17,26.17,0,0,0-10.69,2.4c-.77.31-1.24,0-1.39-.54l-.39-1.08c-.39-.7.08-1.08.46-1.32.23-.16,4.8-2.63,12.31-2.63,10.84,0,11.15,6.35,11.15,15.56v19.82a1.26,1.26,0,0,1-1.24,1.16h-.62a1,1,0,0,1-1.08-1l-.39-3.25a18.53,18.53,0,0,1-12.54,5.11c-6.66,0-11.61-4.49-11.61-11.85C537.29,248.33,542.78,243.14,552.15,243.14Zm-2.86,20.6a17,17,0,0,0,12.08-5.42V248a24.58,24.58,0,0,0-9.21-1.86c-6.81,0-11.54,3.72-11.54,9A8.32,8.32,0,0,0,549.29,263.74Z"/>
        <path class="cls-3" style="fill:#1171fb;" d="M579.87,213.18A1.14,1.14,0,0,1,581,212h1.08a1.25,1.25,0,0,1,1.16,1.16v51.88a1,1,0,0,1-1.16,1.16h-1.24c-.7,0-1-.54-1-1.16Z"/>
        <path class="cls-3" style="fill:#1171fb;" d="M598.3,231.6a1.19,1.19,0,0,1,1.16-1.16h1.16a1.12,1.12,0,0,1,1.08,1.16v20.06c0,8.28,2.79,12.08,10.14,12.08,6.74,0,10.22-5.11,11.31-6.66V231.6a1,1,0,0,1,1.16-1.16h1.16a1.18,1.18,0,0,1,1.08,1.16v33.45a1.18,1.18,0,0,1-1.08,1.16h-.7a1.17,1.17,0,0,1-1.08-1.08l-.31-3.48a14.71,14.71,0,0,1-11.77,5.42c-10.07,0-13.32-5.34-13.32-15.41Z"/>
        <path class="cls-3" style="fill:#1171fb;" d="M656.38,229.67c9.45,0,16,7.12,16,16.26,0,1.39,0,3.48-1.32,3.48H642.52c.16,8,6.19,14.32,13.86,14.32a19.53,19.53,0,0,0,11-3.56c.77-.46,1.16-.54,1.55,0l.85,1.32c.31.31.23.93-.39,1.39a22.92,22.92,0,0,1-13,4.18c-10.53,0-17.27-8.36-17.27-18.82C639.11,238.11,645.85,229.67,656.38,229.67ZM669,246.24c0-7-4.57-13.24-12.62-13.24-7.74,0-13.32,5.81-13.78,13.24Z"/>
        <path class="cls-3" style="fill:#1171fb;" d="M704.93,231.6a1.14,1.14,0,0,1,1.16-1.16h.54c.54,0,.93.31,1,1l.39,3.64a14.44,14.44,0,0,1,11.38-5.42,16.19,16.19,0,0,1,5.57,1,1.26,1.26,0,0,1,.93,1.63l-.46,1.39c-.23.7-.85.77-1.47.47a10.48,10.48,0,0,0-4.8-1.16,13,13,0,0,0-10.84,6.12v25.94a1,1,0,0,1-1.16,1.16h-1.24c-.7,0-1-.54-1-1.16Z"/>
        <path class="cls-3" style="fill:#1171fb;" d="M749.22,229.67c9.45,0,16,7.12,16,16.26,0,1.39,0,3.48-1.32,3.48H735.36c.16,8,6.19,14.32,13.86,14.32a19.53,19.53,0,0,0,11-3.56c.77-.46,1.16-.54,1.55,0l.85,1.32c.31.31.23.93-.39,1.39a22.92,22.92,0,0,1-13,4.18c-10.53,0-17.27-8.36-17.27-18.82C732,238.11,738.69,229.67,749.22,229.67Zm12.62,16.57c0-7-4.57-13.24-12.62-13.24-7.74,0-13.32,5.81-13.78,13.24Z"/>
        <path class="cls-3" style="fill:#1171fb;" d="M780.66,283.48a1.32,1.32,0,0,1-1.24,1.16h-1a1.14,1.14,0,0,1-1.16-1.16V231.6a1.16,1.16,0,0,1,1.24-1.16H779c.62,0,.93.23,1,.93l.31,2.48a19.76,19.76,0,0,1,12.08-4.18c9.91,0,17,8.13,17,18.58s-7.43,18.82-17.81,18.82a17.17,17.17,0,0,1-10.84-3.72Zm10.76-19.75c8.67,0,14.48-6.81,14.48-15.56,0-8.28-5.5-15.18-13.7-15.18a15.9,15.9,0,0,0-11.54,4.72V259.4A16.56,16.56,0,0,0,791.42,263.74Z"/>
        <path class="cls-3" style="fill:#1171fb;" d="M837.34,229.67c10,0,18,8.44,18,18.58,0,10.45-8,18.82-18,18.82-10.22,0-18-8.36-18-18.82C819.38,238.11,827.12,229.67,837.34,229.67Zm0,34.07c8,0,14.33-6.89,14.33-15.49,0-8.36-6.35-15.25-14.33-15.25-8.13,0-14.56,6.89-14.56,15.25C822.79,256.85,829.21,263.74,837.34,263.74Z"/>
        <path class="cls-3" style="fill:#1171fb;" d="M867.77,231.6a1.14,1.14,0,0,1,1.16-1.16h.54c.54,0,.93.31,1,1l.39,3.64a14.44,14.44,0,0,1,11.38-5.42,16.19,16.19,0,0,1,5.57,1,1.26,1.26,0,0,1,.93,1.63l-.46,1.39c-.23.7-.85.77-1.47.47A10.48,10.48,0,0,0,882,233a13,13,0,0,0-10.84,6.12v25.94a1,1,0,0,1-1.16,1.16h-1.24c-.7,0-1-.54-1-1.16Z"/>
        <path class="cls-3" style="fill:#1171fb;" d="M900.3,233.77H896c-.93,0-1.16-.47-1.16-1.16v-1.24c0-.7.46-.93,1.16-.93h4.34v-9.76c0-.7.54-1.08,1.24-1.16l1-.08a1.14,1.14,0,0,1,1.16,1.16v9.83h12.62a1.16,1.16,0,0,1,1.24,1.16v1a1.12,1.12,0,0,1-1.24,1.16H903.71v23.38c0,4.65.77,6.58,4.88,6.58a15.33,15.33,0,0,0,8.21-2.86c.85-.46,1.16-.08,1.39.31l.62,1.08a1,1,0,0,1-.31,1.39,18.8,18.8,0,0,1-10.38,3.41c-6.66,0-7.82-4.41-7.82-9.52Z"/>
        <path class="cls-3" style="fill:#1171fb;" d="M927.24,217.59a3,3,0,0,1,3.1-3,3,3,0,1,1,0,6A3,3,0,0,1,927.24,217.59Zm1.47,14a1.14,1.14,0,0,1,1.16-1.16H931a1.25,1.25,0,0,1,1.16,1.16v33.45a1,1,0,0,1-1.16,1.16h-1.24c-.7,0-1-.54-1-1.16Z"/>
        <path class="cls-3" style="fill:#1171fb;" d="M947.07,231.6a1.16,1.16,0,0,1,1.24-1.16h.39a.94.94,0,0,1,1.08.93l.39,3.79a17.41,17.41,0,0,1,12.62-5.5c10.14,0,13.47,6.27,13.47,15.64v19.75a1.19,1.19,0,0,1-1.16,1.16H974a1.19,1.19,0,0,1-1.16-1.16V245.46c0-8.28-3.33-12.47-10.22-12.47-7.28,0-11.85,5.65-12.16,6.12v25.94a1,1,0,0,1-1.16,1.16h-1.24c-.7,0-1-.54-1-1.16Z"/>
        <path class="cls-3" style="fill:#1171fb;" d="M1017.07,263.35a17.17,17.17,0,0,1-10.84,3.72c-10.38,0-17.81-8.28-17.81-18.82s7-18.58,17-18.58a19.76,19.76,0,0,1,12.08,4.18l.31-2.48c.08-.7.39-.93,1-.93h.46a1.16,1.16,0,0,1,1.24,1.16v35.54c0,10.3-6.89,16-15.87,16a18.67,18.67,0,0,1-12.08-4.65c-.54-.54-.46-.85-.16-1.32l.77-1c.47-.54.85-.54,1.55,0a17.11,17.11,0,0,0,9.91,3.64c7,0,12.47-4.26,12.47-12.7Zm0-25.63a15.9,15.9,0,0,0-11.54-4.72c-8.21,0-13.71,6.89-13.71,15.18,0,8.75,5.81,15.56,14.48,15.56a16.57,16.57,0,0,0,10.76-4.34Z"/>
    </g>
</g>
</svg>

