<?xml version="1.0" encoding="UTF-8" standalone="no"?>
<svg xmlns:dc="http://purl.org/dc/elements/1.1/" xmlns:cc="http://creativecommons.org/ns#" xmlns:rdf="http://www.w3.org/1999/02/22-rdf-syntax-ns#" xmlns:svg="http://www.w3.org/2000/svg" xmlns="http://www.w3.org/2000/svg" viewBox="0 0 113.38667 113.38667" height="113.38667" width="113.38667" xml:space="preserve" id="svg2" version="1.1">
<g transform="matrix(1.3333333,0,0,-1.3333333,0,113.38667)" id="g10">
    <g transform="scale(0.1)" id="g12">
        <path id="path14" style="fill:#3846a3;fill-opacity:1;fill-rule:nonzero;stroke:none" d="M -0.00390625,850.391 H 850.395 V 0 H -0.00390625 v 850.391"/>
        <path id="path16" style="fill:#ffffff;fill-opacity:1;fill-rule:nonzero;stroke:none" d="M 44.9648,783.445 V 765.23 H 78.7813 V 636.406 H 101.301 V 765.23 h 33.824 v 18.215 H 44.9648"/>
        <path id="path18" style="fill:#ffffff;fill-opacity:1;fill-rule:nonzero;stroke:none" d="m 645.277,785.879 c -32.871,0 -48.851,-24.695 -48.851,-75.508 0,-31.058 5.789,-51.953 17.707,-63.867 7.715,-7.719 18.195,-11.629 31.144,-11.629 42.211,0 45.45,37.797 45.567,54.371 -7.219,0 -15.422,0 -22.516,0 -0.742,-17.422 -2.644,-36.16 -23.168,-36.16 -6.555,0 -11.355,1.742 -15.105,5.492 -7.582,7.586 -11.114,24.043 -11.114,51.793 0,27.762 3.536,44.215 11.114,51.797 3.75,3.75 8.55,5.496 15.105,5.496 16.336,0 19.227,-14.664 21.387,-31.805 7.25,0 15.625,0 22.512,0 -1.977,23.996 -10.86,50.02 -43.782,50.02"/>
        <path id="path20" style="fill:#ffffff;fill-opacity:1;fill-rule:nonzero;stroke:none" d="M 244.406,598.531 V 537.266 H 195.5 v 61.265 H 172.984 V 451.496 H 195.5 v 67.559 h 48.906 v -67.559 h 22.516 v 147.035 h -22.516"/>
        <path id="path22" style="fill:#ffffff;fill-opacity:1;fill-rule:nonzero;stroke:none" d="m 559.633,451.406 h 22.519 V 598.438 H 559.633 V 451.406"/>
        <path id="path24" style="fill:#ffffff;fill-opacity:1;fill-rule:nonzero;stroke:none" d="m 293.582,451.406 h 22.52 v 147.032 h -22.52 V 451.406"/>
        <path id="path26" style="fill:#ffffff;fill-opacity:1;fill-rule:nonzero;stroke:none" d="m 792.941,559.602 c -1.371,25.621 -17.058,40.918 -41.957,40.918 -24.597,0 -41.125,-14.297 -41.125,-35.571 0,-22.984 19.227,-34.922 36.188,-45.453 14.43,-8.957 28.058,-17.414 28.058,-31.082 0,-13.148 -7.675,-20.687 -21.058,-20.687 -19.035,0 -23.387,13.308 -23.684,24.48 l -0.066,2.578 h -21.172 l 0.047,-2.695 c 0.484,-25.867 17.406,-42.578 43.121,-42.578 14.363,0 25.941,3.984 33.48,11.519 6.625,6.633 10.133,16.032 10.133,27.188 0,26.41 -20.035,38.457 -37.707,49.082 -14.242,8.566 -26.543,15.961 -26.543,29.019 0,11.918 10.637,15.985 19.289,15.985 13.262,0 20.399,-7.551 21.821,-23.09 l 0.218,-2.406 h 21.11 l -0.153,2.793"/>
        <path id="path28" style="fill:#ffffff;fill-opacity:1;fill-rule:nonzero;stroke:none" d="m 699.633,373.254 c -1.379,25.617 -17.063,40.918 -41.957,40.918 -24.602,0 -41.129,-14.297 -41.129,-35.57 0,-22.985 19.226,-34.918 36.183,-45.45 14.43,-8.961 28.059,-17.418 28.059,-31.086 0,-13.148 -7.676,-20.687 -21.055,-20.687 -19.039,0 -23.382,13.316 -23.679,24.48 l -0.071,2.579 h -21.171 l 0.046,-2.696 c 0.481,-25.867 17.411,-42.582 43.121,-42.582 14.364,0 25.938,3.988 33.477,11.528 6.633,6.628 10.133,16.027 10.133,27.179 0,26.414 -20.031,38.461 -37.699,49.086 -14.246,8.57 -26.543,15.969 -26.543,29.02 0,11.918 10.632,15.98 19.281,15.98 13.266,0 20.406,-7.547 21.82,-23.086 l 0.223,-2.406 h 21.109 l -0.148,2.793"/>
        <path id="path30" style="fill:#ffffff;fill-opacity:1;fill-rule:nonzero;stroke:none" d="m 331.566,411.949 v -18.211 h 33.817 v -128.82 h 22.519 v 128.82 h 33.825 v 18.211 h -90.161"/>
        <path id="path32" style="fill:#ffffff;fill-opacity:1;fill-rule:nonzero;stroke:none" d="m 509.859,305.047 c 0,-13.098 3.68,-23.414 10.942,-30.672 7.433,-7.441 18.293,-11.211 32.273,-11.211 13.981,0 24.844,3.77 32.281,11.211 7.254,7.258 10.938,17.574 10.938,30.672 v 107.137 h -22.52 V 305.441 c 0,-16.64 -6.382,-24.062 -20.699,-24.062 -12.523,0 -20.691,5.391 -20.691,24.062 V 412.184 H 509.859 V 305.047"/>
        <path id="path34" style="fill:#ffffff;fill-opacity:1;fill-rule:nonzero;stroke:none" d="m 704.945,411.949 v -18.211 h 33.821 v -128.82 h 22.519 v 128.82 h 33.82 v 18.211 h -90.16"/>
        <path id="path36" style="fill:#ffffff;fill-opacity:1;fill-rule:nonzero;stroke:none" d="m 691.859,558.527 c 0,13.094 -3.683,23.414 -10.937,30.672 -7.438,7.438 -18.301,11.211 -32.277,11.211 -27.465,0 -43.215,-15.265 -43.215,-41.883 V 451.395 h 22.515 v 106.742 c 0,8.965 1.883,15.199 5.743,19.062 3.367,3.364 8.253,5 14.957,5 6.699,0 11.585,-1.636 14.953,-5 3.863,-3.863 5.742,-10.097 5.742,-19.062 V 451.395 h 22.519 v 107.132"/>
        <path id="path38" style="fill:#ffffff;fill-opacity:1;fill-rule:nonzero;stroke:none" d="m 576.91,743.781 c 0,26.617 -15.75,41.879 -43.211,41.879 -27.465,0 -43.219,-15.262 -43.219,-41.879 V 636.641 H 513 v 106.746 c 0,16.64 6.383,24.062 20.699,24.062 14.313,0 20.699,-7.422 20.699,-24.062 V 636.641 h 22.512 v 107.14"/>
        <path id="path40" style="fill:#ffffff;fill-opacity:1;fill-rule:nonzero;stroke:none" d="m 316.98,779.141 c -4.265,-5.161 -7.417,-11.336 -9.257,-18.614 -2.653,2.297 -6.5,6.629 -16.996,6.629 -15.434,0 -20.7,-8.308 -20.7,-24.062 V 636.348 h -22.519 v 107.136 c 0,26.614 15.754,41.883 43.219,41.883 15.234,0 23.793,-4.847 26.253,-6.226"/>
        <path id="path42" style="fill:#ffffff;fill-opacity:1;fill-rule:nonzero;stroke:none" d="m 501.668,407.527 c -4.27,-5.168 -7.418,-11.343 -9.258,-18.621 -2.656,2.301 -6.5,6.629 -16.996,6.629 -15.437,0 -20.699,-8.301 -20.699,-24.058 v -106.75 h -22.52 v 107.14 c 0,26.617 15.75,41.879 43.219,41.879 15.227,0 23.789,-4.844 26.254,-6.219"/>
        <path id="path44" style="fill:#ffffff;fill-opacity:1;fill-rule:nonzero;stroke:none" d="m 429.59,486.844 -0.086,36.039 h -42.66 v -18.219 h 23.121 l 0.027,-0.144 v -17.219 c 0,-12.535 -8.652,-19.723 -23.746,-19.723 -13.383,0 -25.769,6.942 -25.769,57.285 0,50.352 12.386,57.293 25.769,57.293 18.863,0 21.152,-18.203 22.43,-32.613 5.941,0 14.879,-0.078 22.605,-0.078 -0.808,20.254 -9.965,50.902 -45.035,50.902 -32.492,0 -48.289,-24.73 -48.289,-75.609 0,-50.735 15.797,-75.391 48.289,-75.391 15.797,0 25.383,5.25 28.766,7.504 1.496,0.996 14.593,10.305 14.578,29.973"/>
        <path id="path46" style="fill:#ffffff;fill-opacity:1;fill-rule:nonzero;stroke:none" d="m 538.492,486.844 -0.074,36.039 h -42.664 v -18.219 h 23.121 l 0.027,-0.144 v -17.219 c 0,-12.535 -8.656,-19.723 -23.742,-19.723 -13.387,0 -25.773,6.942 -25.773,57.285 0,50.352 12.386,57.293 25.773,57.293 18.86,0 21.153,-18.203 22.426,-32.613 5.941,0 14.879,-0.078 22.605,-0.078 -0.808,20.254 -9.964,50.902 -45.031,50.902 -32.496,0 -48.293,-24.73 -48.293,-75.609 0,-50.735 15.797,-75.391 48.293,-75.391 15.793,0 25.379,5.25 28.766,7.504 1.492,0.996 14.594,10.305 14.566,29.973"/>
        <path id="path48" style="fill:#ffffff;fill-opacity:1;fill-rule:nonzero;stroke:none" d="m 209.828,685.445 c 0,0 -0.332,-32.621 -24.785,-32.621 -22.691,0 -23.508,28.77 -23.508,59.278 h 66.692 v 15.554 c 0,46.942 -18.372,57.961 -43.184,57.961 -31.844,0 -46.039,-23.254 -46.039,-75.394 0,-52.293 14.195,-75.614 46.039,-75.614 43.133,0 42.777,50.907 42.777,50.907 z m -3.469,44.868 H 162.18 c 2.277,30.468 10.355,37.089 22.863,37.089 14.922,0 21.355,-6.73 21.316,-37.089"/>
        <path id="path50" style="fill:#ffffff;fill-opacity:1;fill-rule:nonzero;stroke:none" d="m 386.348,779.273 c -2.864,1.586 -11.266,5.997 -25.84,5.997 -27.469,0 -43.219,-15.27 -43.219,-41.883 V 636.25 h 22.52 v 106.746 c 0,15.754 5.261,24.063 20.699,24.063 9.25,0 13.332,-3.36 15.988,-5.735 2.555,7.043 5.824,12.992 9.852,17.949"/>
        <path id="path52" style="fill:#ffffff;fill-opacity:1;fill-rule:nonzero;stroke:none" d="m 451.859,685.445 c 0,0 -0.332,-32.621 -24.785,-32.621 -22.691,0 -23.508,28.77 -23.508,59.278 h 66.692 v 15.554 c 0,46.942 -18.371,57.961 -43.184,57.961 -31.844,0 -46.035,-23.254 -46.035,-75.394 0,-52.293 14.191,-75.614 46.035,-75.614 43.141,0 42.781,50.907 42.781,50.907 z m -3.464,44.868 h -44.184 c 2.277,30.468 10.355,37.089 22.863,37.089 14.926,0 21.356,-6.73 21.321,-37.089"/>
        <path id="path54" style="fill:#ffffff;fill-opacity:1;fill-rule:nonzero;stroke:none" d="m 776.219,685.445 c 0,0 -0.332,-32.621 -24.781,-32.621 -22.688,0 -23.508,28.77 -23.508,59.278 h 66.691 v 15.554 c 0,46.942 -18.367,57.961 -43.183,57.961 -31.84,0 -46.04,-23.254 -46.04,-75.394 0,-52.293 14.2,-75.614 46.04,-75.614 43.136,0 42.781,50.907 42.781,50.907 z m -3.461,44.868 h -44.18 c 2.274,30.468 10.356,37.089 22.86,37.089 14.921,0 21.359,-6.73 21.32,-37.089"/>
        <path id="path56" style="fill:#ffffff;fill-opacity:1;fill-rule:nonzero;stroke:none" d="M 747.98,229.383 C 711.594,228.086 699.852,204.215 687.973,183 c -0.907,-1.613 -1.2,-2.973 -1.2,-3.723 0,-0.16 -0.125,-0.3 -0.281,-0.3 -0.16,0 -0.293,0.125 -0.293,0.281 0,0.058 0.016,0.109 0.043,0.152 0.547,0.863 0.988,3.293 0.207,5.695 -1.472,4.512 -6.312,6.981 -10.824,5.516 -4.516,-1.465 -6.984,-6.312 -5.52,-10.824 l 12.125,-37.379 37.016,13.176 c 4.473,1.586 6.813,6.492 5.227,10.965 -1.59,4.472 -6.496,6.808 -10.969,5.226 -2.383,-0.851 -3.965,-2.273 -4.293,-3.453 -0.016,-0.059 -0.043,-0.113 -0.082,-0.156 -0.117,-0.117 -0.277,-0.09 -0.367,0.062 -0.086,0.157 -0.051,0.391 0.062,0.508 0.539,0.563 1.285,1.293 2.082,2.957 14.766,30.844 37.965,52.016 54.547,40.57 8.813,-6.089 12.453,-24.656 1.102,-52.5 -14.805,-36.316 -50.539,-75.8199 -69.18,-88.0855 -45.117,30.0975 -75.605,74.6675 -82.453,95.3985 -3.41,10.309 -11.234,40.973 21.582,51.281 22.539,6.563 42.957,-10.703 48.758,-16.199 0.238,-0.266 1.297,-1.035 1.699,-1.316 3.105,-1.348 4.457,1.961 4.594,3.171 0.336,1.555 -1.016,3.25 -1.016,3.25 -6.805,9.391 -37.926,32.754 -70.199,13.254 -36.465,-26.941 -8.985,-72.004 -3.742,-81.464 15.132,-27.286 65.379,-76.4536 80.519,-83.5552 20.563,8.707 89.403,70.8752 95.028,117.6722 4.691,39.008 -20.516,57.562 -44.165,56.203"/>
    </g>
</g>
</svg>

